<svg width="112" height="119" viewBox="0 0 112 119" fill="none" xmlns="http://www.w3.org/2000/svg">
<mask id="mask0_77_25" style="mask-type:alpha" maskUnits="userSpaceOnUse" x="0" y="80" width="16" height="17">
<rect x="1.75519" y="80.7199" width="13.7143" height="14.6286" transform="rotate(6.89109 1.75519 80.7199)" fill="#D9D9D9"/>
</mask>
<g mask="url(#mask0_77_25)">
<path d="M62.9621 77.2042C62.9448 77.1564 62.9275 77.1087 62.9096 77.0595C62.8537 77.1031 62.8537 77.1031 62.7966 77.1476C62.406 77.4518 62.0153 77.7557 61.6244 78.0594C61.4788 78.1726 61.3333 78.2859 61.1878 78.3992C60.978 78.5627 60.768 78.7259 60.5579 78.889C60.4935 78.9393 60.4291 78.9895 60.3628 79.0412C60.0295 79.2997 59.693 79.5472 59.3402 79.7791C59.1756 79.8888 59.0212 80.0089 58.867 80.1323C58.6096 80.3343 58.3478 80.5222 58.0745 80.7024C57.8818 80.8314 57.6933 80.9656 57.5044 81.1C57.1593 81.3434 56.8061 81.569 56.4466 81.7909C56.2303 81.9286 56.0216 82.0739 55.8129 82.2224C55.5009 82.4437 55.1844 82.6496 54.8562 82.8464C54.6935 82.9447 54.532 83.0443 54.371 83.1454C53.8005 83.5039 53.2258 83.8531 52.6418 84.1899C52.3678 84.348 52.0949 84.5074 51.8241 84.6707C51.0606 85.1308 50.2839 85.5564 49.492 85.9667C49.3066 86.0634 49.122 86.1614 48.9376 86.26C43.6805 89.0688 37.9746 91.2927 32.1465 92.6352C32.0577 92.6558 31.9689 92.6763 31.8774 92.6974C30.206 93.0822 28.5339 93.3894 26.8307 93.605C26.6572 93.6276 26.4841 93.6521 26.3109 93.6777C24.8721 93.889 23.4243 93.9861 21.9705 94.0202C21.9203 94.0214 21.87 94.0226 21.8183 94.0239C20.9346 94.0438 20.0743 94.0222 19.196 93.9169C19.1124 93.9071 19.0289 93.8972 18.9428 93.8871C18.767 93.8662 18.5912 93.8451 18.4154 93.8238C18.1497 93.7918 17.8838 93.761 17.618 93.7302C16.7534 93.6277 15.9131 93.5162 15.0771 93.2692C15.0189 93.2531 14.9607 93.237 14.9006 93.2204C12.5944 92.5763 10.3914 91.5988 9.15234 89.454C7.06486 85.8406 8.88885 84.0095 8.88885 84.0095C8.88885 84.0095 8.93046 83.9608 8.17696 83.3868C7.42347 82.8128 8.09047 82.0573 7.46508 82.7641C6.83968 83.4708 6.3004 85.1983 7.60378 88.944C7.79139 89.4832 8.05206 89.9675 8.35485 90.4514C8.39404 90.5142 8.43323 90.5771 8.47361 90.6419C9.49789 92.1859 11.1635 93.2531 12.817 94.0334C12.8669 94.0573 12.9168 94.0813 12.9682 94.106C14.8438 95.0002 16.871 95.4379 18.9238 95.6877C18.9907 95.6959 19.0576 95.7041 19.1265 95.7125C20.148 95.8356 21.1481 95.9086 22.1778 95.8852C22.3865 95.8811 22.5948 95.8808 22.8035 95.8816C23.6976 95.884 24.5835 95.8463 25.474 95.7705C25.5421 95.7648 25.5421 95.7648 25.6116 95.7589C26.9947 95.6414 28.3689 95.5075 29.7329 95.2479C29.7799 95.239 29.827 95.23 29.8755 95.2208C32.6954 94.683 35.4615 93.9992 38.1716 93.0551C38.4161 92.97 38.661 92.8861 38.9059 92.8022C39.9992 92.4251 41.0742 92.0162 42.1364 91.5605C42.2198 91.525 42.3032 91.4895 42.3891 91.4528C43.8152 90.844 45.2062 90.1775 46.5848 89.4703C46.6923 89.4154 46.6923 89.4154 46.8019 89.3593C47.7735 88.8611 48.7183 88.3219 49.6577 87.7671C49.7087 87.7372 49.7598 87.7072 49.8124 87.6764C50.3499 87.361 50.8755 87.0321 51.3937 86.6866C51.6603 86.5089 51.9293 86.3367 52.2022 86.1686C52.5781 85.9351 52.9373 85.6833 53.296 85.425C53.4702 85.3001 53.6471 85.1797 53.8252 85.0603C54.7965 84.408 55.7199 83.6907 56.644 82.9755C56.6948 82.9363 56.7456 82.8971 56.7979 82.8567C57.7795 82.098 57.7795 82.098 58.191 81.7216C58.3749 81.5541 58.5679 81.3974 58.7595 81.2387C59.105 80.9503 59.4351 80.6515 59.7582 80.3386C59.9393 80.1671 60.1244 80.0017 60.3116 79.8368C60.8384 79.3723 61.3287 78.8825 61.8117 78.374C61.9951 78.1825 62.182 77.9945 62.3692 77.8067C62.5681 77.6071 62.7667 77.4072 62.9621 77.2042Z" fill="#84583C"/>
</g>
<path d="M111.511 81.3597C108.887 88.8991 104.667 95.7839 99.1407 101.545C93.6141 107.306 86.9104 111.807 79.4865 114.743C72.0626 117.678 64.0931 118.978 56.1212 118.554C48.1493 118.131 40.3625 115.993 33.2916 112.287C26.2207 108.581 20.032 103.395 15.1473 97.0802C10.2626 90.7659 6.79688 83.4726 4.98629 75.6975C3.1757 67.9224 3.06285 59.8482 4.65543 52.0256C6.24801 44.2029 9.50859 36.8156 14.2149 30.3672L23.9175 37.4485C20.2292 42.502 17.674 48.2914 16.4259 54.4219C15.1778 60.5524 15.2662 66.8799 16.6852 72.9731C18.1041 79.0664 20.8202 84.782 24.6482 89.7305C28.4762 94.6789 33.3262 98.7438 38.8676 101.648C44.4089 104.552 50.5113 106.227 56.7588 106.559C63.0062 106.892 69.2518 105.873 75.0698 103.572C80.8878 101.272 86.1414 97.744 90.4724 93.2293C94.8035 88.7145 98.1101 83.319 100.167 77.4105L111.511 81.3597Z" fill="#DBC595"/>
<path d="M53.7685 0.000127204C53.8931 0.000154973 54.0177 0.000182741 54.1461 0.000211351C56.3092 0.00499093 58.3831 0.162208 60.5111 0.574569C60.6469 0.60055 60.7828 0.626531 60.9227 0.653299C61.7937 0.823845 62.657 1.01846 63.5187 1.23107C63.617 1.25486 63.7153 1.27864 63.8165 1.30314C68.0794 2.35193 72.1212 4.24866 76.1164 6.03437C78.1391 6.93711 80.1858 7.78402 82.2718 8.52957C86.6032 10.0796 90.2741 12.5529 93.7468 15.5325C94.2916 15.9987 94.8508 16.4426 95.4224 16.8754C95.7197 17.1485 95.8747 17.4279 96.0793 17.775C96.2804 17.9914 96.488 18.2018 96.7005 18.4069C97.2649 18.9638 97.7949 19.5292 98.3023 20.1384C98.3889 20.2403 98.3889 20.2403 98.4773 20.3442C102.153 24.6776 102.153 24.6776 102.25 26.1619C102.238 26.3 102.238 26.3 102.225 26.4409C102.005 26.5476 102.005 26.5476 101.702 26.5722C101.472 26.3597 101.261 26.1457 101.048 25.9157C100.981 25.8438 100.913 25.772 100.843 25.6979C100.616 25.457 100.391 25.2146 100.166 24.9719C100.085 24.8851 100.004 24.7983 99.921 24.7088C99.4672 24.2197 99.0205 23.7255 98.5802 23.224C98.1672 22.7604 97.7379 22.3443 97.2639 21.9443C97.0788 21.786 96.8982 21.6226 96.7214 21.455C94.0079 18.8888 90.5771 16.8767 87.0565 15.6742C86.9501 15.6358 86.8438 15.5974 86.7342 15.5578C81.567 13.7317 76.294 14.0313 71.3509 16.3984C69.6622 17.2403 68.1104 18.2803 66.6571 19.4819C66.5879 19.5381 66.5186 19.5943 66.4473 19.6522C64.7144 21.0633 63.1041 22.6545 61.6476 24.3505C61.2742 24.7763 60.8781 25.1784 60.4784 25.5792C60.393 25.6649 60.3076 25.7506 60.2195 25.8388C59.6308 26.4226 59.0233 26.9657 58.3724 27.4795C58.0079 27.7687 57.6588 28.0725 57.3074 28.3776C55.638 29.7737 53.7994 30.9391 51.8806 31.9555C51.8011 31.9986 51.7216 32.0416 51.6398 32.0859C49.9944 32.9737 48.2624 33.6515 46.5192 34.3189C46.4264 34.355 46.3336 34.3911 46.238 34.4283C43.3968 35.5192 40.3142 35.897 37.3182 36.3151C36.5681 36.4202 35.8217 36.5409 35.0755 36.6707C34.5303 36.7649 33.9845 36.8507 33.4371 36.9311C29.2935 37.5416 25.1661 38.4923 21.2815 40.0962C21.1279 40.159 21.1279 40.159 20.9713 40.223C18.558 41.2234 16.2508 42.5118 14.2202 44.1665C14.1065 44.2542 13.9929 44.3419 13.8759 44.4322C11.5096 46.2956 9.72095 48.5376 8.20494 51.1255C8.15808 51.205 8.11122 51.2845 8.06294 51.3664C6.80042 53.5366 6.02609 55.9094 5.45887 58.347C5.4201 58.5089 5.38133 58.6707 5.34139 58.8374C4.82331 61.1139 4.75236 63.3413 4.75601 65.6671C4.75599 65.8216 4.75597 65.9762 4.75596 66.1354C4.75933 68.4496 4.87398 70.6488 5.3281 72.9215C5.40385 73.3296 5.4781 73.738 5.55196 74.1465C5.59681 74.3909 5.64322 74.635 5.69167 74.8786C5.82275 75.5524 5.88523 76.1734 5.85117 76.8605C5.7204 76.9918 5.7204 76.9918 5.38531 77C5.28013 76.9973 5.17495 76.9946 5.06657 76.9918C4.72733 76.331 4.42095 75.6754 4.17573 74.973C4.12711 74.8344 4.12711 74.8344 4.0775 74.6929C3.58738 73.2513 3.22146 71.7698 2.84356 70.2954C2.80966 70.1671 2.77576 70.0388 2.74083 69.9066C2.47884 68.8955 2.29163 67.8796 2.12435 66.8488C2.11044 66.764 2.09653 66.6792 2.08219 66.5918C1.58458 63.5521 1.24553 60.5428 1.24986 57.4608C1.24998 57.3476 1.2501 57.2344 1.25023 57.1178C1.25462 55.2403 1.31276 53.3853 1.53591 51.5194C1.56442 51.2744 1.56442 51.2744 1.5935 51.0244C1.94585 48.0629 2.57051 45.2 3.36662 42.3283C3.39022 42.2427 3.41382 42.1571 3.43814 42.069C5.17657 35.7901 8.08074 29.7617 11.8664 24.4714C11.9433 24.3638 12.0203 24.2563 12.0996 24.1455C12.9875 22.9104 13.8908 21.6932 14.874 20.5323C14.9329 20.4622 14.9918 20.3921 15.0525 20.3199C16.4399 18.6692 17.8914 17.0969 19.4099 15.5675C19.475 15.5018 19.54 15.4362 19.6071 15.3685C20.3595 14.6098 21.1221 13.8726 21.9353 13.1795C22.0831 13.0502 22.2307 12.9208 22.3782 12.7912C28.2222 7.70007 35.2384 3.56769 42.727 1.49368C42.8229 1.46704 42.9188 1.4404 43.0177 1.41296C44.2827 1.06636 45.5552 0.781314 46.8461 0.54995C47.0132 0.519469 47.0132 0.519469 47.1835 0.488371C49.3673 0.115248 51.5565 -0.00447951 53.7685 0.000127204Z" fill="#879C84"/>
<path d="M55.2805 1.75628C55.8564 1.82281 56.1285 2.0091 56.5473 2.40458C56.6629 2.51003 56.7786 2.61547 56.8977 2.72411C57.242 3.06929 57.242 3.06929 57.5209 3.43498C57.8879 3.89398 58.2202 4.30584 58.8142 4.44372C59.3698 4.5038 59.9233 4.49716 60.4815 4.49565C61.6035 4.49953 62.7026 4.69232 63.8098 4.85897C63.9644 4.88193 64.119 4.90488 64.2783 4.92853C64.4842 4.96029 64.4842 4.96029 64.6943 4.99268C65.0909 5.03915 65.4737 5.04685 65.8725 5.03881C65.4453 4.46253 65.0161 3.88958 64.5648 3.33189C64.962 3.50992 65.2343 3.70911 65.5374 4.02122C65.6101 4.09502 65.6827 4.16881 65.7576 4.24485C66.0033 4.5136 66.0033 4.5136 66.2847 4.92084C66.7138 5.43771 67.2142 5.47627 67.8503 5.58042C69.2136 5.84951 70.5109 6.25213 71.8223 6.70469C71.9223 6.73895 72.0222 6.77321 72.1251 6.80851C73.3009 7.21413 74.4163 7.66224 75.5246 8.23106C77.0805 9.01591 78.7733 9.21857 80.4724 9.50565C80.6299 9.53228 80.6298 9.53228 80.7905 9.55946C80.9456 9.58568 80.9456 9.58568 81.1038 9.61243C82.2987 9.81838 83.4299 10.1499 84.572 10.5535C84.8415 10.6451 85.111 10.7367 85.3806 10.8284C86.8017 11.3197 88.1749 11.8463 89.5012 12.5589C89.9322 12.7936 89.9322 12.7936 90.3977 12.9759C90.8726 13.1903 91.2325 13.4394 91.6415 13.7621C91.7134 13.8187 91.7854 13.8753 91.8595 13.9336C92.4939 14.4376 93.1083 14.9648 93.7187 15.4977C94.2856 15.992 94.868 16.4614 95.4653 16.9185C95.5385 16.9845 95.6116 17.0505 95.687 17.1185C95.687 17.2052 95.687 17.2918 95.687 17.3811C95.2896 17.1966 94.9298 16.9704 94.5648 16.7283C93.5459 16.0521 92.4982 15.4553 91.4126 14.8946C91.2825 14.8271 91.2825 14.8271 91.1497 14.7583C89.4028 13.8579 87.617 13.1337 85.7488 12.523C85.6181 12.4799 85.4873 12.4369 85.3525 12.3925C80.8004 10.8561 80.8004 10.8561 76.1212 10.9638C75.997 10.9944 75.8728 11.025 75.7448 11.0565C75.4935 11.1194 75.2425 11.1835 74.9919 11.2488C74.6623 11.3339 74.3318 11.4124 74.0004 11.49C73.0673 11.7012 73.0673 11.7012 72.3204 12.2557C72.1842 12.5608 72.1025 12.8563 72.0185 13.1795C71.9124 13.42 71.8006 13.6581 71.6834 13.8934C71.6063 14.0557 71.6063 14.0557 71.5276 14.2212C71.3646 14.4925 71.3646 14.4925 70.9724 14.7551C71.0071 14.6908 71.0418 14.6265 71.0776 14.5602C71.2955 14.0998 71.4668 13.6246 71.6425 13.1466C71.6788 13.0488 71.715 12.951 71.7523 12.8502C71.8413 12.6099 71.9299 12.3695 72.0185 12.1291C70.1852 12.8816 68.3756 13.67 66.5917 14.5335C66.5126 14.5716 66.4335 14.6096 66.352 14.6488C65.8396 14.8958 65.3323 15.1516 64.8264 15.4116C64.6957 15.4746 64.5651 15.5377 64.4305 15.6026C63.8036 15.9099 63.8036 15.9099 63.4097 16.4554C63.3695 16.748 63.3698 17.0127 63.388 17.3073C63.3917 17.4985 63.3944 17.6899 63.3961 17.8812C63.3976 17.9729 63.3992 18.0646 63.4007 18.1591C63.3808 18.5842 63.2615 18.9486 63.1264 19.3506C63.0199 18.9762 62.9801 18.646 62.9829 18.2571C62.9833 18.1522 62.9837 18.0473 62.9842 17.9391C62.9853 17.8308 62.9864 17.7225 62.9875 17.6109C62.9881 17.5005 62.9887 17.3902 62.9893 17.2765C62.9908 17.005 62.9932 16.7335 62.9957 16.462C62.4861 16.7539 61.9767 17.0459 61.4672 17.3379C61.2941 17.4372 61.121 17.5364 60.9479 17.6355C60.6982 17.7786 60.4486 17.9217 60.199 18.0648C60.1223 18.1087 60.0456 18.1526 59.9666 18.1979C59.7555 18.319 59.5448 18.4409 59.3342 18.5628C59.2134 18.6322 59.0926 18.7015 58.9681 18.7729C58.6562 18.9722 58.4894 19.1735 58.2881 19.4819C58.2881 19.3953 58.2881 19.3086 58.2881 19.2193C57.784 19.4927 57.2801 19.7663 56.7761 20.04C56.6341 20.117 56.4921 20.194 56.3458 20.2733C55.9467 20.4901 55.5481 20.708 55.1497 20.9262C55.0503 20.9801 54.9509 21.0341 54.8484 21.0896C54.3976 21.3198 54.3976 21.3198 54.1036 21.714C54.0897 21.9466 54.0833 22.1796 54.0806 22.4126C54.0013 26.5235 54.0013 26.5235 52.9267 28.0165C52.9267 27.5006 53.1183 27.1404 53.3226 26.6727C53.569 25.9693 53.5981 25.2368 53.6219 24.4965C53.6274 24.3336 53.6329 24.1707 53.6385 24.0028C53.6462 23.7514 53.6462 23.7514 53.6541 23.4948C53.6598 23.3236 53.6654 23.1524 53.6712 22.976C53.685 22.5554 53.6984 22.1347 53.7113 21.714C53.5907 21.7756 53.4701 21.8372 53.3459 21.9006C52.8937 22.1312 52.441 22.3608 51.9882 22.59C51.7931 22.6889 51.5982 22.7881 51.4034 22.8876C49.4114 23.9048 49.4114 23.9048 48.3499 24.2088C48.3441 24.3105 48.3382 24.4123 48.3321 24.5171C48.0434 29.3747 48.0434 29.3747 47.4346 29.986C47.4504 29.8978 47.4663 29.8096 47.4826 29.7188C47.6715 28.5883 47.7759 27.4582 47.8664 26.316C47.8764 26.1908 47.8865 26.0657 47.8969 25.9367C47.9055 25.8252 47.9141 25.7136 47.9229 25.5987C47.9617 25.2195 48.0226 24.8468 48.0884 24.4714C47.5866 24.6557 47.0893 24.8489 46.5943 25.0508C46.4258 25.118 46.2563 25.1828 46.0859 25.245C45.5227 25.4518 45.0261 25.6677 44.5577 26.047C44.3217 26.6193 44.2929 27.1395 44.2962 27.7539C44.2554 28.8412 44.099 29.82 43.7977 30.8641C43.7489 31.0386 43.7489 31.0386 43.6992 31.2167C43.6661 31.3256 43.633 31.4345 43.599 31.5468C43.555 31.6934 43.555 31.6934 43.5102 31.843C43.3458 32.1528 43.1774 32.2236 42.8578 32.3494C42.9154 32.2213 42.9731 32.0932 43.0325 31.9612C43.8087 30.1344 43.9991 28.2749 44.0347 26.3096C43.3743 26.5779 42.714 26.8464 42.0537 27.115C41.8298 27.2061 41.6058 27.2971 41.3819 27.3881C40.8472 27.6054 40.3127 27.8231 39.7786 28.0418C39.4188 28.189 39.0584 28.334 38.6966 28.4761C38.5553 28.5326 38.4139 28.5891 38.2682 28.6474C38.1479 28.6946 38.0275 28.7418 37.9035 28.7904C37.5876 28.9247 37.5876 28.9247 37.4065 29.3213C37.3713 29.5648 37.3713 29.5647 37.3656 29.8547C37.3554 29.9999 37.3451 30.1452 37.3345 30.2948C37.3122 30.6117 37.2938 30.9288 37.2798 31.2462C37.2349 31.693 37.1308 32.0619 36.9733 32.4807C36.9302 32.4807 36.887 32.4807 36.8426 32.4807C36.9018 31.3218 36.9923 30.2042 37.2349 29.0669C37.0154 29.1555 37.0154 29.1555 36.7915 29.2459C35.7454 29.6674 34.6987 30.087 33.649 30.4994C33.5669 30.5317 33.4848 30.564 33.4002 30.5972C32.9915 30.7579 32.5827 30.9182 32.1737 31.0781C32.0234 31.1371 31.8731 31.1962 31.7182 31.257C31.5842 31.3094 31.4502 31.3619 31.3121 31.4159C30.6909 31.671 30.6909 31.671 30.1735 32.0868C30.1735 32.0002 30.1735 31.9135 30.1735 31.8242C30.058 31.8748 30.058 31.8748 29.9401 31.9265C29.585 32.0816 29.2295 32.2361 28.8741 32.3905C28.6924 32.4701 28.6924 32.4701 28.507 32.5513C28.3269 32.6293 28.3269 32.6293 28.1431 32.709C28.0236 32.7608 27.9041 32.8126 27.781 32.866C27.4449 32.9991 27.1131 33.094 26.7644 33.1875C26.4816 33.2696 26.4817 33.2696 26.2506 33.3998C26.0358 33.7984 26.0358 33.7984 25.9972 34.2615C25.8727 35.0923 25.8727 35.0923 25.5967 35.3694C25.6687 34.7676 25.7907 34.2339 25.989 33.6624C21.1155 35.7434 16.1299 38.2113 12.3894 42.0657C11.7356 42.7222 11.7356 42.7222 11.4935 42.9469C9.93044 44.4364 8.74185 46.235 7.68188 48.1056C7.55172 48.3248 7.42119 48.5437 7.28959 48.7621C7.24643 48.6754 7.20328 48.5887 7.15882 48.4995C7.32969 48.1322 7.50871 47.7851 7.7064 47.4326C7.76522 47.3272 7.82404 47.2217 7.88464 47.1131C8.46325 46.101 9.13302 45.1764 9.85503 44.2637C10.0161 44.06 10.1745 43.8541 10.3324 43.648C11.5353 42.1131 12.9467 40.7657 14.4817 39.571C14.6379 39.4438 14.7941 39.3164 14.9501 39.1889C16.4052 38.0177 17.9687 37.0618 19.5806 36.1243C19.8416 35.9718 20.1016 35.8175 20.3604 35.6613C21.3163 35.0876 22.2952 34.6012 23.3084 34.1384C23.4683 34.0646 23.6283 33.9907 23.7882 33.9167C24.5283 33.575 25.2705 33.238 26.0146 32.9049C26.1355 32.8507 26.2565 32.7965 26.3811 32.7407C26.6047 32.6409 26.8286 32.5418 27.0528 32.4434C27.6103 32.2007 27.6103 32.2007 28.0813 31.8242C28.2984 31.7766 28.5165 31.7333 28.7351 31.6929C29.2299 31.5195 29.7129 31.3172 30.1981 31.1185C30.3301 31.066 30.4622 31.0135 30.5983 30.9595C30.7243 30.908 30.8503 30.8566 30.9801 30.8036C31.0951 30.757 31.2101 30.7103 31.3286 30.6623C31.6517 30.5189 31.6517 30.5189 31.8735 30.1173C31.8735 30.204 31.8735 30.2906 31.8735 30.3799C32.9523 29.9466 34.0311 29.5133 35.1426 29.0669C35.1426 28.8503 35.1426 28.6336 35.1426 28.4104C35.2289 28.5837 35.3152 28.757 35.4042 28.9356C36.6124 28.459 37.8207 27.9824 39.0656 27.4913C38.9361 27.318 38.8067 27.1447 38.6733 26.9661C38.7164 26.8794 38.7596 26.7928 38.8041 26.7035C38.9767 26.8768 39.1493 27.0501 39.3271 27.2287C40.4402 26.8831 41.5015 26.4233 42.5717 25.9649C42.8475 25.8469 43.1233 25.729 43.3993 25.6116C43.5699 25.5391 43.7403 25.4662 43.9106 25.3929C44.2962 25.2288 44.6698 25.0813 45.0808 24.9966C45.0376 24.8666 44.9945 24.7366 44.95 24.6027C45.06 24.6114 45.1699 24.6201 45.2831 24.6291C45.82 24.5977 46.2109 24.4198 46.6817 24.18C46.7714 24.1359 46.8611 24.0918 46.9535 24.0463C47.2399 23.9049 47.5252 23.7615 47.8105 23.6179C47.9971 23.5254 48.1837 23.4331 48.3704 23.3409C48.8369 23.1101 49.3025 22.8772 49.7676 22.6435C50.0552 22.4992 50.3431 22.3553 50.6311 22.2116C50.8177 22.1182 51.0044 22.0249 51.191 21.9315C51.2761 21.889 51.3612 21.8466 51.4489 21.8028C52.0828 21.485 52.7056 21.1508 53.319 20.7949C53.2327 20.6649 53.1464 20.535 53.0575 20.401C53.1763 20.4401 53.2952 20.4792 53.4176 20.5195C54.2157 20.634 54.8806 20.0841 55.5339 19.6871C55.6732 19.6051 55.8125 19.5231 55.956 19.4386C56.2989 19.2364 56.6402 19.032 56.9805 18.8254C56.9805 18.7388 56.9805 18.6521 56.9805 18.5628C57.0646 18.554 57.1487 18.5452 57.2353 18.5361C57.8058 18.3865 58.2769 18.1003 58.7866 17.8078C58.8872 17.7513 58.9877 17.6948 59.0913 17.6365C59.6808 17.3029 60.2559 16.9536 60.822 16.5814C61.0342 16.462 61.0342 16.462 61.2957 16.462C61.2957 16.3753 61.2957 16.2887 61.2957 16.1994C61.4247 16.1369 61.4247 16.1369 61.5562 16.0732C62.3725 15.6712 63.1684 15.2446 63.9601 14.7961C67.1845 12.9808 70.4788 11.601 73.98 10.4222C73.2764 9.71567 70.2713 10.1133 69.3193 10.1064C69.0246 10.1035 68.7299 10.099 68.4353 10.0929C68.0059 10.0841 67.5769 10.0805 67.1475 10.078C67.016 10.0743 66.8846 10.0707 66.7491 10.0669C66.0847 10.0539 66.0847 10.0539 65.5096 10.3405C65.303 10.5764 65.303 10.5764 65.0879 10.9474C65.0448 10.8607 65.0016 10.774 64.9571 10.6848C65.0434 10.5548 65.1298 10.4248 65.2187 10.2908C63.9937 10.2669 62.7788 10.3416 61.5572 10.4222C61.5141 10.5521 61.4709 10.6821 61.4265 10.8161C61.3833 10.7294 61.3402 10.6427 61.2957 10.5535C61.2068 10.5647 61.1179 10.5759 61.0263 10.5875C60.6176 10.6392 60.2088 10.6907 59.8001 10.7422C59.6603 10.7599 59.5204 10.7776 59.3764 10.7958C59.2386 10.8131 59.1008 10.8305 58.9588 10.8484C58.8231 10.8659 58.6874 10.8835 58.5477 10.9016C58.2995 10.9307 58.0506 10.9544 57.8012 10.971C57.4504 10.9899 57.4504 10.9899 56.9805 11.0787C56.8133 11.3372 56.8133 11.3372 56.7189 11.6039C56.7189 11.4739 56.7189 11.3439 56.7189 11.21C56.5975 11.2338 56.4761 11.2577 56.351 11.2823C55.9011 11.3706 55.4512 11.4586 55.0013 11.5465C54.8065 11.5847 54.6117 11.6229 54.4169 11.6612C54.1371 11.7162 53.8573 11.7708 53.5775 11.8254C53.409 11.8584 53.2406 11.8914 53.067 11.9254C52.6652 11.9978 52.6652 11.9978 52.4037 11.9978C52.3174 12.1711 52.2311 12.3444 52.1421 12.523C52.1421 12.393 52.1421 12.263 52.1421 12.1291C51.5831 12.2718 51.0248 12.4176 50.4667 12.564C50.3078 12.6045 50.149 12.6451 49.9853 12.6868C49.8331 12.727 49.681 12.7672 49.5243 12.8087C49.3839 12.8451 49.2435 12.8815 49.0989 12.9191C48.7402 13.0489 48.5772 13.14 48.3499 13.4421C48.2143 13.8506 48.193 14.1635 48.1778 14.5925C48.1723 14.7393 48.1668 14.8862 48.1612 15.0374C48.156 15.1907 48.1509 15.344 48.1456 15.5019C48.14 15.6566 48.1343 15.8114 48.1285 15.9709C48.1146 16.3534 48.1013 16.736 48.0884 17.1185C48.0452 17.1185 48.0021 17.1185 47.9576 17.1185C47.5747 14.379 47.5747 14.379 48.0884 13.3108C47.6579 13.4337 47.2275 13.5569 46.7971 13.6801C46.6771 13.7143 46.5571 13.7486 46.4334 13.7839C46.2539 13.8353 46.2539 13.8353 46.0707 13.8878C45.9625 13.9187 45.8543 13.9497 45.7429 13.9815C45.1724 14.1482 44.6036 14.3205 44.0347 14.4925C44.0339 14.5659 44.0331 14.6393 44.0324 14.715C44.0239 15.4927 44.0128 16.2704 44.0004 17.0481C43.9961 17.3368 43.9924 17.6254 43.9894 17.914C43.9698 19.7414 43.8573 21.4938 43.5116 23.2897C42.6289 23.1912 42.6289 23.1912 42.3347 22.8958C42.5936 22.9391 42.8526 22.9824 43.1193 23.0271C43.542 21.2385 43.6759 19.5478 43.6506 17.7176C43.6469 17.4 43.6437 17.0824 43.6412 16.7648C43.6397 16.5691 43.6374 16.3734 43.6343 16.1777C43.6292 15.6445 43.6693 15.1468 43.7731 14.6238C43.2736 14.8113 42.7757 15.0026 42.279 15.1976C42.11 15.2633 41.9405 15.328 41.7707 15.3916C41.5262 15.4833 41.2832 15.5792 41.0403 15.6752C40.8938 15.7316 40.7473 15.788 40.5963 15.8461C40.2171 16.0414 40.2171 16.0414 40.0617 16.4279C39.9727 16.8996 39.9636 17.3148 39.984 17.7945C39.9873 17.8808 39.9906 17.9671 39.9939 18.0561C40.0046 18.329 40.0173 18.6018 40.03 18.8747C40.0376 19.0608 40.0451 19.247 40.0525 19.4332C40.0707 19.8872 40.0907 20.3411 40.1117 20.7949C39.9823 20.8383 39.8528 20.8816 39.7194 20.9262C39.6942 20.3586 39.6708 19.791 39.6492 19.2233C39.6416 19.0303 39.6334 18.8374 39.6248 18.6445C39.6124 18.3665 39.6019 18.0885 39.5917 17.8104C39.5849 17.6433 39.578 17.4762 39.571 17.3041C39.5882 16.868 39.6607 16.588 39.8502 16.1994C39.3803 16.4164 38.9104 16.6336 38.4407 16.8509C38.2031 16.9608 37.9654 17.0706 37.7278 17.1803C37.5769 17.2501 37.4261 17.3199 37.2706 17.3919C37.1323 17.4558 36.994 17.5198 36.8514 17.5857C36.6529 17.6794 36.6529 17.6794 36.4503 17.775C36.3066 17.8398 36.1629 17.9046 36.0149 17.9713C35.6268 18.1393 35.6268 18.1393 35.5349 18.5628C35.5166 18.8502 35.5054 19.1381 35.4981 19.426C35.4933 19.5977 35.4884 19.7694 35.4833 19.9464C35.4787 20.128 35.4741 20.3097 35.4695 20.4913C35.4193 22.4766 35.4193 22.4766 35.3163 23.1337C35.2951 23.3409 35.2951 23.3409 35.2734 23.5523C35.5567 23.8696 35.5567 23.8696 35.9272 24.0775C36.0603 24.2064 36.1921 24.3367 36.3195 24.4714C35.8029 24.3181 35.4324 24.1499 35.0119 23.8149C34.7242 25.1716 34.7048 26.3823 34.8811 27.7539C34.3915 27.2623 34.4604 26.6682 34.4479 25.9977C34.4406 25.7444 34.4406 25.7444 34.4331 25.4859C34.4528 24.9586 34.5897 24.5048 34.7473 24.0026C35.0508 22.9926 35.0939 22.0415 35.1018 20.9919C35.1073 20.6486 35.1132 20.3053 35.1196 19.962C35.1211 19.8128 35.1226 19.6636 35.1241 19.5099C35.1422 19.0966 35.1968 18.7063 35.2734 18.3002C34.766 18.5706 34.259 18.8415 33.7522 19.1128C33.58 19.2049 33.4078 19.2969 33.2355 19.3886C32.9866 19.5212 32.738 19.6544 32.4895 19.7876C32.3402 19.8674 32.1909 19.9471 32.0371 20.0293C31.8968 20.1087 31.7565 20.188 31.612 20.2697C31.466 20.3445 31.32 20.4194 31.1696 20.4964C30.7798 20.7739 30.7798 20.7739 30.7383 21.2764C30.7384 21.4682 30.7428 21.6599 30.7507 21.8515C30.7519 21.9528 30.753 22.054 30.7541 22.1583C30.7585 22.4809 30.7683 22.8031 30.7783 23.1255C30.7823 23.3445 30.7858 23.5635 30.7891 23.7825C30.7977 24.3187 30.8112 24.8545 30.8274 25.3905C30.5684 25.3471 30.3095 25.3038 30.0428 25.2592C30.1387 25.1236 30.1387 25.1236 30.2365 24.9852C30.4723 24.5309 30.4803 24.2441 30.4734 23.7343C30.4715 23.4887 30.4715 23.4887 30.4695 23.2381C30.4663 23.0683 30.463 22.8984 30.4596 22.7234C30.4578 22.551 30.456 22.3786 30.4542 22.201C30.4496 21.776 30.4432 21.3512 30.4351 20.9262C29.9998 21.1966 29.5648 21.4675 29.1301 21.7389C28.9102 21.876 28.69 22.0128 28.4698 22.1495C28.3303 22.2367 28.1908 22.3238 28.0471 22.4136C27.919 22.4934 27.791 22.5732 27.659 22.6553C26.9501 23.0719 26.9501 23.0719 26.5509 23.7449C26.5458 23.8641 26.5408 23.9833 26.5356 24.1062C26.5279 24.2388 26.5203 24.3714 26.5124 24.508C26.5069 24.6475 26.5014 24.7871 26.4958 24.9309C26.3227 27.8127 26.3227 27.8127 25.7275 28.4104C25.7533 28.2841 25.7533 28.2841 25.7796 28.1553C25.9678 27.184 26.0659 26.2209 26.1362 25.2346C26.1531 25.0095 26.1531 25.0095 26.1704 24.7799C26.1978 24.4145 26.2245 24.0491 26.2506 23.6836C25.0847 24.4967 23.9275 25.3206 22.7935 26.1783C22.6984 26.2491 22.6033 26.3198 22.5054 26.3928C22.4172 26.4601 22.3291 26.5274 22.2382 26.5968C22.1606 26.6555 22.083 26.7143 22.003 26.7748C21.6967 27.0701 21.5589 27.3435 21.5133 27.7679C21.5147 27.8641 21.5161 27.9604 21.5175 28.0596C21.5183 28.1645 21.5192 28.2695 21.52 28.3776C21.5222 28.4859 21.5244 28.5942 21.5267 28.7058C21.5279 28.8162 21.529 28.9265 21.5302 29.0402C21.5333 29.3117 21.538 29.5832 21.543 29.8547C21.6241 29.8509 21.7052 29.8471 21.7887 29.8432C21.8949 29.8402 22.0011 29.8372 22.1105 29.8342C22.2159 29.8304 22.3212 29.8266 22.4297 29.8227C22.7199 29.8547 22.7199 29.8547 23.055 30.183C23.117 30.2913 23.1791 30.3996 23.243 30.5112C22.7363 30.265 22.7363 30.265 22.5891 30.1173C22.3911 30.0869 22.1919 30.0632 21.9925 30.0435C21.8845 30.0325 21.7764 30.0215 21.6651 30.0101C21.5817 30.0022 21.4982 29.9942 21.4123 29.986C21.4043 30.0652 21.3964 30.1444 21.3882 30.226C21.3773 30.331 21.3663 30.4359 21.355 30.544C21.3391 30.6994 21.3391 30.6994 21.3229 30.8579C21.2815 31.1677 21.2815 31.1677 21.2125 31.4134C21.0006 32.3716 21.0992 33.4894 21.2815 34.4502C20.8117 33.9785 20.7591 33.3863 20.7574 32.7438C20.8001 32.029 20.8941 31.3711 21.0935 30.6835C21.3827 29.6361 21.3137 28.5681 21.2815 27.4913C20.8703 27.8204 20.4629 28.1538 20.0591 28.4921C19.9128 28.6146 19.766 28.7366 19.6188 28.858C19.3969 29.0426 19.1784 29.2306 18.9604 29.4198C18.855 29.5062 18.855 29.5062 18.7475 29.5943C18.5247 29.7818 18.5247 29.7818 18.2739 30.1173C18.2885 30.5568 18.3866 30.8583 18.5436 31.2662C18.7113 31.8499 18.6876 32.4027 18.6662 33.0059C18.623 33.0059 18.5799 33.0059 18.5354 33.0059C18.5139 32.8513 18.5139 32.8513 18.492 32.6936C18.3735 31.9054 18.2372 31.2253 17.8816 30.5112C17.6656 30.721 17.4505 30.9318 17.2359 31.1431C17.1161 31.2604 16.9962 31.3777 16.8728 31.4985C16.4262 31.9852 16.4283 32.3553 16.4258 33.0013C16.4339 33.267 16.4339 33.267 16.5097 33.5087C16.5809 33.8247 16.5825 34.0969 16.5729 34.4205C16.5696 34.5992 16.5696 34.5992 16.5663 34.7816C16.5605 35.0302 16.5537 35.2788 16.5458 35.5273C16.5346 36.25 16.596 36.699 16.9662 37.3389C16.9231 37.4255 16.8799 37.5122 16.8355 37.6015C16.0958 36.4755 16.1743 35.4372 16.1857 34.1174C16.1804 33.5218 16.1232 32.9398 16.0509 32.3494C15.0506 33.4128 14.0761 34.482 13.174 35.632C13.1037 35.7207 13.0333 35.8095 12.9608 35.901C12.4131 36.5926 11.873 37.2896 11.3433 37.9954C11.2868 38.0707 11.2302 38.1461 11.1719 38.2237C10.6555 38.9255 10.3167 39.4721 10.383 40.3624C10.4245 40.6234 10.4245 40.6234 10.4969 40.8825C10.5994 41.3203 10.5662 41.7486 10.5587 42.197C10.3216 41.7768 10.2289 41.3918 10.1501 40.9168C10.1282 40.7875 10.1063 40.6582 10.0837 40.525C10.0678 40.4268 10.052 40.3286 10.0357 40.2275C7.76235 42.2549 6.47977 46.3835 5.45887 49.156C5.40536 49.2995 5.40536 49.2995 5.35077 49.4459C3.86243 53.4828 3.54432 57.7704 3.23586 62.0235C3.1927 62.0235 3.14955 62.0235 3.10509 62.0235C2.89037 53.499 5.58423 45.7146 10.1591 38.6106C10.3037 38.3868 10.3037 38.3868 10.428 38.1267C9.82382 38.2567 9.21968 38.3867 8.59724 38.5206C8.72801 38.258 8.72801 38.258 9.04675 38.1185C9.55048 37.9854 10.0174 37.9522 10.5362 37.9349C10.63 37.9115 10.7237 37.8881 10.8203 37.8641C10.9124 37.6916 10.9987 37.5159 11.0818 37.3389C11.2078 37.1526 11.3379 36.9692 11.471 36.788C11.5475 36.6837 11.624 36.5794 11.7029 36.472C11.7838 36.3627 11.8647 36.2534 11.9481 36.1408C12.0302 36.0293 12.1123 35.9179 12.1969 35.8031C12.7676 35.0318 13.3483 34.2714 13.9586 33.5311C13.8571 33.5596 13.7557 33.588 13.6511 33.6173C12.3515 33.9537 11.0955 34.074 9.77413 33.7937C9.71608 33.9077 9.65803 34.0217 9.59822 34.1391C9.38281 34.5617 9.16673 34.984 8.95046 35.4062C8.85693 35.589 8.76358 35.7718 8.67041 35.9548C8.5365 36.2178 8.40195 36.4804 8.26726 36.7429C8.22571 36.8248 8.18415 36.9068 8.14134 36.9912C7.96836 37.327 7.81922 37.5949 7.55112 37.8641C7.63241 37.2816 7.85726 36.8051 8.12322 36.2885C8.19232 36.1526 8.19232 36.1526 8.26282 36.0139C8.36375 35.816 8.46509 35.6183 8.56678 35.4208C8.732 35.099 8.89478 34.776 9.05747 34.4528C11.0645 30.499 13.5734 26.6901 16.5739 23.421C16.7105 23.2626 16.8467 23.104 16.9826 22.945C18.5709 21.1218 20.225 19.2902 22.1207 17.7853C22.5657 17.4257 22.9843 17.0401 23.4028 16.6502C23.6353 16.462 23.6353 16.462 23.8968 16.462C23.8968 16.3753 23.8968 16.2887 23.8968 16.1994C23.681 16.1561 23.4653 16.1127 23.243 16.0681C23.5446 15.9866 23.8238 15.931 24.1359 15.8999C24.6298 15.7875 24.8448 15.6087 25.2208 15.2721C25.9616 14.6336 26.7364 14.1019 27.5582 13.5734C27.2562 13.4867 26.9541 13.4001 26.6429 13.3108C26.6429 13.2674 26.6429 13.2241 26.6429 13.1795C26.7303 13.189 26.8177 13.1985 26.9078 13.2083C27.9936 13.2749 28.6121 12.9638 29.4952 12.3588C29.6131 12.2818 29.731 12.2048 29.8525 12.1255C30.1797 11.911 30.5039 11.6926 30.8274 11.4726C30.9858 11.3664 31.1443 11.2604 31.3029 11.1546C31.4559 11.052 31.4559 11.052 31.612 10.9474C31.4393 10.8174 31.2667 10.6874 31.0889 10.5535C31.2507 10.5905 31.4125 10.6276 31.5793 10.6658C32.4512 10.7622 33.0898 10.3473 33.835 9.93798C34.1046 9.795 34.3743 9.65224 34.6441 9.50971C34.7724 9.44127 34.9006 9.37283 35.0328 9.30231C36.4138 8.58394 36.4138 8.58394 36.8426 8.58394C36.7994 8.45395 36.7563 8.32396 36.7118 8.19003C36.8406 8.19816 36.9694 8.20628 37.1021 8.21465C37.6917 8.21465 38.1674 8.02013 38.706 7.79613C39.6744 7.40223 39.6744 7.40223 40.1117 7.40223C40.1117 7.31557 40.1117 7.22891 40.1117 7.13962C40.0168 7.10476 39.9219 7.06989 39.8241 7.03397C39.4577 6.87693 39.1565 6.69277 38.8286 6.46671C38.7252 6.39596 38.6219 6.32521 38.5155 6.25232C38.3994 6.17158 38.3994 6.17158 38.281 6.08922C38.3673 6.04589 38.4536 6.00256 38.5425 5.95791C38.8921 6.17271 39.2274 6.39858 39.559 6.64006C40.0519 6.97078 40.4013 7.06485 40.9852 6.95287C41.6329 6.79095 42.2747 6.61527 42.915 6.42567C43.0589 6.38463 43.2027 6.34359 43.351 6.3013C43.4874 6.26127 43.6239 6.22124 43.7645 6.18C43.8886 6.1437 44.0127 6.10741 44.1406 6.07001C44.4495 5.98614 44.4495 5.98614 44.5577 5.69531C44.8017 5.70496 44.8017 5.70496 45.0507 5.7148C45.8132 5.7145 46.5223 5.55265 47.2629 5.38347C48.3079 5.15279 49.3366 4.95323 50.4008 4.83621C50.5008 4.81641 50.6007 4.79661 50.7037 4.77621C50.7469 4.68955 50.79 4.60289 50.8345 4.5136C50.9076 4.5246 50.9808 4.53561 51.0562 4.54694C51.7069 4.62994 52.3177 4.64371 52.9717 4.58746C54.0188 4.50572 55.0646 4.47014 56.1141 4.43975C56.3011 4.43405 56.488 4.42833 56.675 4.42256C57.1255 4.40875 57.576 4.39539 58.0266 4.3823C57.7425 4.06318 57.4557 3.7466 57.1684 3.43037C57.049 3.29606 57.049 3.29606 56.9271 3.15905C56.4192 2.60321 55.9535 2.22501 55.2805 1.88758C55.2805 1.84425 55.2805 1.80092 55.2805 1.75628Z" fill="#DEE4CD"/>
<path d="M57.0867 5.2686C57.3005 5.26846 57.3005 5.26846 57.5185 5.26833C59.6334 5.27041 61.6919 5.33221 63.7803 5.69532C63.9266 5.71995 64.073 5.74458 64.2238 5.76995C65.1296 5.92426 66.0317 6.09274 66.9323 6.27522C67.2478 6.33906 67.5637 6.39991 67.88 6.46005C69.203 6.73737 70.4718 7.17788 71.7488 7.6156C71.8441 7.64816 71.9395 7.68071 72.0377 7.71425C72.3107 7.80791 72.5833 7.9028 72.8557 7.99822C73.0155 8.05401 73.1753 8.1098 73.3399 8.16728C73.7184 8.32135 73.7184 8.32135 73.98 8.58395C73.838 8.58501 73.6961 8.58607 73.5498 8.58717C72.2144 8.59732 70.879 8.60884 69.5435 8.6217C68.8569 8.62827 68.1703 8.63435 67.4837 8.63934C66.8215 8.64417 66.1593 8.65025 65.4971 8.65722C65.2441 8.65966 64.991 8.66164 64.7379 8.66317C64.3844 8.66537 64.0309 8.66918 63.6774 8.67338C63.5192 8.67381 63.5192 8.67381 63.3579 8.67424C62.7889 8.66134 62.7889 8.66134 62.3418 8.97785C61.7903 9.10497 61.2276 9.16238 60.6664 9.23225C60.4331 9.2669 60.4332 9.2669 60.1952 9.30226C59.0417 9.44598 59.0417 9.44598 58.5236 9.06043C58.4459 8.94652 58.3682 8.83261 58.2881 8.71525C58.2018 8.67192 58.1155 8.62859 58.0266 8.58395C58.2423 8.84392 58.4581 9.1039 58.6804 9.37175C57.8022 9.65056 56.9049 9.80596 55.9997 9.97082C55.8431 9.99984 55.6865 10.0289 55.5252 10.0588C55.225 10.114 54.9246 10.1682 54.6241 10.2211C54.3951 10.2621 54.1666 10.3054 53.9392 10.3542C53.5612 10.4292 53.3683 10.4489 53.0238 10.2616C52.9432 10.1819 52.8626 10.1022 52.7796 10.0201C52.693 9.93576 52.6063 9.85148 52.5171 9.76463C52.2006 9.42559 51.9039 9.08163 51.6191 8.71525C51.8858 9.04999 52.1519 9.38453 52.4118 9.72463C52.661 10.0521 52.6609 10.0521 53.0575 10.2909C53.0575 10.3775 53.0575 10.4642 53.0575 10.5535C52.5299 10.7073 52.0018 10.8593 51.4732 11.0095C51.2936 11.0608 51.1141 11.1126 50.9348 11.165C50.6765 11.2404 50.4177 11.3138 50.1587 11.3869C49.9255 11.454 49.9255 11.454 49.6876 11.5224C49.2622 11.6045 49.0198 11.6062 48.6115 11.4726C48.3264 11.269 48.0618 11.0647 47.7942 10.8407C46.9175 10.1361 46.0939 9.62085 44.95 9.50306C45.0293 9.52235 45.1085 9.54165 45.1901 9.56153C46.5791 9.93486 47.6396 10.6999 48.7422 11.6039C48.3216 11.8854 47.9513 12.0155 47.4719 12.1747C47.3866 12.2032 47.3013 12.2316 47.2134 12.261C47.0334 12.3209 46.8532 12.3806 46.673 12.4401C46.3979 12.5308 46.1231 12.6223 45.8483 12.714C44.4893 13.1658 44.4893 13.1658 43.9039 13.3108C43.6437 13.4139 43.385 13.521 43.1275 13.6308C42.8633 13.7432 42.5991 13.8553 42.3347 13.9673C42.2208 14.0172 42.1068 14.0672 41.9894 14.1186C41.2591 14.382 40.6329 14.1701 39.9626 13.855C39.4395 13.5974 38.9246 13.3256 38.4118 13.0482C38.9393 13.3548 39.4655 13.6498 40.0136 13.9181C40.3736 14.0943 40.6926 14.2686 41.0271 14.4925C40.3873 14.7871 39.7475 15.0815 39.1076 15.3756C38.89 15.4757 38.6725 15.5758 38.455 15.6759C38.1418 15.8201 37.8286 15.9641 37.5153 16.1081C37.4186 16.1527 37.3218 16.1973 37.2222 16.2433C36.9654 16.3611 36.7079 16.4774 36.4503 16.5933C36.328 16.6496 36.2058 16.7058 36.0799 16.7638C35.7965 16.8559 35.7964 16.8559 35.4271 16.7138C35.3036 16.6389 35.18 16.5639 35.0527 16.4866C34.8659 16.3757 34.8659 16.3757 34.6752 16.2625C34.5706 16.1983 34.4659 16.1342 34.358 16.0681C34.2717 16.0248 34.1854 15.9815 34.0965 15.9368C34.5712 16.2401 35.0459 16.5434 35.5349 16.8559C34.9742 17.419 34.3135 17.7453 33.6225 18.1279C33.4154 18.2473 33.4154 18.2473 33.2041 18.3692C32.4039 18.8118 31.7476 19.1547 30.8274 18.9567C30.3696 18.8107 29.935 18.6244 29.4952 18.4315C27.8346 17.7551 26.6751 17.7192 24.9582 18.3136C24.2628 18.5148 23.4856 18.5977 22.8103 18.2971C22.7373 18.2548 22.6643 18.2125 22.5891 18.1689C26.5037 14.1437 32.1475 11.1213 37.2921 9.05991C37.3863 9.02153 37.4806 8.98314 37.5777 8.94358C38.3494 8.64807 38.3494 8.64807 38.8041 8.84655C38.8688 8.65157 38.8688 8.65157 38.9348 8.45265C39.3138 8.29121 39.6795 8.1585 40.0708 8.03412C40.1895 7.99544 40.3082 7.95675 40.4304 7.9169C41.5386 7.56357 42.6586 7.25373 43.7813 6.95089C43.8681 6.92736 43.9548 6.90383 44.0442 6.87959C44.2929 6.81243 44.5421 6.74649 44.7912 6.6806C45.0074 6.62336 45.0074 6.62336 45.2279 6.56497C45.6039 6.48313 45.6039 6.48313 46.1269 6.48313C46.1269 6.91642 46.1269 7.34972 46.1269 7.79614C46.1701 7.36285 46.2132 6.92955 46.2577 6.48313C47.297 6.06203 48.2868 6.00048 49.3961 5.95793C49.3961 6.13124 49.3961 6.30456 49.3961 6.48313C49.4171 6.37955 49.4382 6.27596 49.4599 6.16924C49.6576 5.82663 49.6576 5.82663 50.1291 5.68096C50.3283 5.64986 50.5281 5.62194 50.7282 5.59685C50.8229 5.58212 50.9175 5.5674 51.015 5.55223C53.0249 5.25925 55.0607 5.26973 57.0867 5.2686Z" fill="#879C84"/>
<path d="M19.9657 24.6519C20.3741 24.7525 20.7641 24.8673 21.1604 25.0089C21.5275 25.1231 21.7994 25.1559 22.1805 25.1443C22.2827 25.1419 22.3848 25.1395 22.49 25.1371C22.6038 25.1325 22.6038 25.1325 22.7199 25.1279C22.1974 25.6677 21.6451 26.1631 21.0772 26.6542C20.9909 26.7294 20.9047 26.8045 20.8159 26.882C20.6508 27.0253 20.485 27.1678 20.3184 27.3094C20.1524 27.4507 19.9883 27.5944 19.8252 27.739C19.5009 27.9336 19.2694 27.9247 18.895 27.9098C18.7784 27.9063 18.6617 27.9027 18.5415 27.899C18.4091 27.8922 18.4091 27.8922 18.2739 27.8852C18.3521 27.9014 18.4303 27.9177 18.5109 27.9344C18.7969 28.0165 18.7969 28.0165 19.1892 28.2791C17.794 29.9777 17.794 29.9777 16.9397 30.1286C16.467 30.1711 16.0007 30.1574 15.5278 30.1173C16.0456 30.1173 16.5635 30.1173 17.097 30.1173C17.097 30.3799 17.097 30.3799 16.8201 30.6748C16.6957 30.7942 16.5713 30.9135 16.4432 31.0364C16.3118 31.1662 16.1807 31.2963 16.0498 31.4267C15.9495 31.5266 15.9495 31.5266 15.8471 31.6286C15.7795 31.6958 15.7119 31.7631 15.6422 31.8324C15.5736 31.9002 15.505 31.968 15.4343 32.0378C15.0309 32.437 15.0309 32.437 14.708 32.9008C14.3141 33.3123 13.7716 33.3725 13.2312 33.4983C13.1192 33.5273 13.0072 33.5562 12.8918 33.586C11.9473 33.8158 10.9162 34.0388 10.0357 33.5311C10.1085 33.0694 10.2176 32.7371 10.4673 32.3433C10.5296 32.2443 10.5918 32.1454 10.656 32.0434C10.7237 31.9386 10.7914 31.8338 10.8611 31.7258C10.9314 31.6157 11.0017 31.5056 11.0742 31.3922C12.1753 29.6816 13.3556 28.0276 14.614 26.4301C14.8604 26.1149 15.0788 25.8022 15.277 25.4546C16.2931 23.8318 18.3262 24.3227 19.9657 24.6519Z" fill="#879C84"/>
<path d="M29.2255 18.4233C30.2575 18.8612 30.2575 18.8612 31.3504 19.088C31.3504 19.1747 31.3504 19.2614 31.3504 19.3506C31.038 19.551 30.7257 19.7357 30.4024 19.9169C29.7305 20.2983 29.077 20.691 28.4434 21.1345C28.33 21.213 28.2165 21.2914 28.0996 21.3723C27.8792 21.526 27.6608 21.6824 27.4444 21.8417C26.7637 22.3116 26.318 22.4548 25.4967 22.3117C25.1438 22.2242 24.8129 22.1167 24.4771 21.9767C23.7992 21.7287 23.2106 21.6788 22.4992 21.6648C21.6694 21.6432 21.0912 21.5135 20.4147 21.014C20.2354 20.7949 20.2354 20.7949 20.2354 20.2697C20.4787 19.9836 20.7168 19.7311 20.9873 19.4737C21.0577 19.4043 21.1282 19.3348 21.2008 19.2632C21.9203 18.561 21.9203 18.561 22.3276 18.3002C22.6137 18.3331 22.6137 18.3331 22.9814 18.4315C23.8491 18.6021 24.4948 18.5223 25.327 18.2428C26.7787 17.7603 27.8158 17.8242 29.2255 18.4233Z" fill="#879C84"/>
<path d="M19.7123 20.6636C20.0874 20.8452 20.4394 21.0472 20.7911 21.2709C20.8835 21.3295 20.9759 21.388 21.071 21.4484C21.1405 21.4927 21.2099 21.5371 21.2815 21.5827C21.0961 21.968 20.8914 22.2961 20.6277 22.6332C20.787 22.4407 20.787 22.4407 20.9495 22.2444C21.3654 21.8287 21.661 21.7505 22.2386 21.7494C22.3381 21.754 22.4376 21.7586 22.5401 21.7633C22.6436 21.7656 22.7472 21.7679 22.8539 21.7702C23.6177 21.8019 24.2873 21.9517 24.9981 22.2428C25.3703 22.3838 25.7266 22.447 26.1198 22.5019C25.571 23.0881 24.9618 23.5624 24.3218 24.0446C24.1208 24.1971 23.9199 24.3496 23.719 24.5021C23.6308 24.5688 23.5425 24.6354 23.4515 24.7041C23.2496 24.853 23.2496 24.853 23.1122 24.9966C22.1554 25.0652 21.2871 25.0572 20.3896 24.7073C19.1842 24.2648 17.8424 24.2695 16.5739 24.2088C16.7492 23.814 16.9399 23.5526 17.2523 23.2568C17.5856 22.9325 17.8983 22.6014 18.2003 22.2475C18.6772 21.6914 19.1897 21.1761 19.7123 20.6636Z" fill="#879C84"/>
<path d="M5.06657 48.7621C5.10972 48.8487 5.15287 48.9354 5.19733 49.0247C5.28364 49.068 5.36995 49.1113 5.45887 49.156C5.39945 49.3212 5.39945 49.3212 5.33883 49.4899C3.92498 53.5653 3.54594 57.7481 3.23586 62.0235C3.1927 62.0235 3.14955 62.0235 3.10509 62.0235C2.9918 57.5257 3.60005 53.0254 5.06657 48.7621Z" fill="#DEE4CD"/>
<path d="M35.1426 19.088C35.4042 19.3506 35.4042 19.3506 35.4359 19.653C35.4354 19.777 35.4348 19.901 35.4343 20.0287C35.434 20.1653 35.4338 20.3018 35.4335 20.4426C35.4319 20.5859 35.4303 20.7293 35.4287 20.877C35.4286 21.0173 35.4285 21.1576 35.4284 21.3022C35.425 21.9132 35.4132 22.5054 35.3189 23.1096C35.3038 23.2557 35.2888 23.4018 35.2734 23.5523C35.5567 23.8696 35.5567 23.8696 35.9272 24.0775C36.0603 24.2064 36.1921 24.3367 36.3195 24.4714C35.8029 24.3181 35.4324 24.1499 35.0119 23.8149C34.7242 25.1716 34.7048 26.3823 34.8811 27.7539C34.3915 27.2623 34.4604 26.6682 34.4479 25.9977C34.443 25.8288 34.4382 25.6599 34.4331 25.4859C34.4528 24.9595 34.5893 24.5069 34.7468 24.0057C35.055 22.9804 35.0985 22.0081 35.1099 20.9426C35.1136 20.7613 35.1175 20.5799 35.1217 20.3985C35.1308 19.9616 35.1378 19.5249 35.1426 19.088Z" fill="#DEE4CD"/>
<path d="M30.3043 20.7949C30.4338 20.7949 30.5632 20.7949 30.6966 20.7949C30.7187 21.3639 30.7404 21.9329 30.762 22.5019C30.7682 22.6621 30.7745 22.8224 30.7809 22.9876C30.8111 23.7892 30.8354 24.5883 30.8274 25.3905C30.5684 25.3471 30.3095 25.3038 30.0428 25.2592C30.1075 25.1806 30.1722 25.1021 30.2389 25.0212C30.532 24.3959 30.4687 23.8399 30.4351 23.1584C30.4303 23.0602 30.4255 22.962 30.4205 22.8609C30.3861 22.1719 30.3465 21.4834 30.3043 20.7949Z" fill="#DEE4CD"/>
<path d="M57.765 8.32133C58.2574 8.54737 58.5693 8.84553 58.9419 9.24044C58.8988 9.3271 58.8556 9.41376 58.8112 9.50304C58.481 9.33729 58.3579 9.13665 58.141 8.83833C58.0705 8.74203 58.0001 8.64572 57.9275 8.54649C57.8739 8.47219 57.8203 8.39789 57.765 8.32133Z" fill="#DEE4CD"/>
<path d="M90.0135 60.2194C90.2493 60.6564 90.4828 61.0946 90.7217 61.5299C90.8903 61.837 91.0661 62.1404 91.246 62.4585C91.3403 62.3808 91.4152 62.3108 91.4982 62.252C91.8701 61.9886 92.2421 61.7252 92.6187 61.4686C92.7804 61.3584 92.9415 61.3766 93.1039 61.5204C93.5157 61.8851 93.852 62.308 94.1179 62.7877C94.2018 62.9392 94.149 63.0589 94.0567 63.1782C93.6753 63.6713 93.2145 64.0772 92.7119 64.4384C92.6505 64.4825 92.5887 64.5261 92.5073 64.584C92.726 64.9687 92.942 65.3492 93.1584 65.7294C94.6314 68.3177 96.1025 70.9071 97.5814 73.4921C97.6963 73.6929 97.6953 73.8099 97.5195 73.9555C96.9226 74.4497 96.3414 74.9627 95.7533 75.4674C95.7173 75.4982 95.6736 75.5199 95.6174 75.5563C95.4272 75.3489 95.2363 75.1471 95.0523 74.9392C93.3408 73.0056 91.6302 71.0712 89.92 69.1365C89.3694 68.5137 88.818 67.8915 88.2734 67.2635C88.1798 67.1555 88.1051 67.1401 87.9801 67.1834C87.7907 67.2492 87.5921 67.297 87.3925 67.3296C87.2311 67.3559 87.1575 67.2651 87.2257 67.1113C87.3049 66.9327 87.4111 66.7675 87.4877 66.5879C87.5126 66.5295 87.51 66.4188 87.4715 66.3746C86.795 65.5982 86.111 64.8284 85.3966 64.0395C85.3286 64.0409 85.2882 64.0545 85.2574 64.0798C84.2752 64.8879 83.2936 65.6967 82.3135 66.5073C82.2734 66.5404 82.2484 66.5917 82.2163 66.6345C81.6047 67.0758 81.0109 67.5439 80.3777 67.9528C79.1039 68.7754 77.8086 69.5659 76.5223 70.3697C76.4929 70.3881 76.4647 70.4082 76.4352 70.4264C76.2706 70.5279 76.0253 70.5909 75.9631 70.7406C75.897 70.8998 76.0001 71.1416 76.0368 71.3463C76.2716 72.6576 76.5061 73.9689 76.747 75.2794C76.7884 75.5049 76.7391 75.6683 76.5841 75.8316C76.218 76.2173 75.8763 76.6267 75.4978 77.0571C74.7728 75.4615 74.0615 73.8958 73.3452 72.3194C72.989 72.5067 72.649 72.691 72.3033 72.8649C72.1178 72.9583 71.9233 73.0349 71.7317 73.1166C71.5873 73.1781 71.4371 73.1907 71.3191 73.0528C71.1977 72.9109 71.2448 72.7558 71.3337 72.6367C71.6487 72.2143 71.9754 71.8012 72.298 71.3849C72.3312 71.3421 72.3664 71.3011 72.4143 71.2426C71.0257 70.2516 69.6492 69.2693 68.2434 68.2661C68.656 67.9923 69.0621 67.7629 69.4194 67.4735C69.7208 67.2292 69.9919 67.2607 70.3433 67.4016C71.6545 67.9271 72.9768 68.4199 74.2931 68.931C74.4332 68.9854 74.5133 68.9762 74.6148 68.8593C76.0153 67.2463 77.458 65.6712 79.0403 64.2403C80.2158 63.1772 81.4587 62.1894 82.6718 61.1682C82.7391 61.1115 82.8075 61.0561 82.8899 60.9882C82.2264 60.1231 81.5786 59.2784 80.9233 58.4238C80.6293 58.4683 80.3691 58.6822 80.0221 58.5858C80.0041 58.3239 80.1243 58.1258 80.2533 57.9421C80.3576 57.7935 80.351 57.6914 80.2308 57.5348C78.0509 54.6923 75.8781 51.8445 73.7012 48.9997C73.6231 48.8976 73.5942 48.8264 73.6878 48.7243C74.2173 48.1466 74.7987 47.6448 75.5591 47.3817C75.7076 47.3304 75.8107 47.3349 75.9435 47.4467C78.255 49.3914 80.5705 51.3312 82.8855 53.2716C83.099 53.4505 83.3248 53.6158 83.526 53.8078C83.6641 53.9397 83.7438 53.9135 83.8539 53.7985C84.2828 53.351 84.7585 52.9649 85.3227 52.6914C85.5309 52.5904 85.6919 52.6028 85.8797 52.773C86.2481 53.1069 86.5671 53.4732 86.8087 53.9102C86.9182 54.1081 86.9066 54.271 86.7628 54.4149C86.4501 54.7276 86.1331 55.0359 85.8148 55.3427C85.7318 55.4227 85.6374 55.4907 85.5326 55.5771C86.1836 56.1257 86.8215 56.6633 87.4727 57.212C87.5526 57.1461 87.6208 57.0898 87.6891 57.0336C89.2891 55.7192 90.879 54.3923 92.4932 53.0954C93.375 52.3869 94.3308 51.7749 95.4221 51.4197C95.9274 51.2552 96.4693 51.1635 97.0058 51.1161C97.69 51.0557 97.9461 51.39 97.785 52.0611C97.5614 52.9927 97.1062 53.8013 96.5033 54.5076C96.005 55.0913 95.4469 55.6217 94.8808 56.1844C94.817 56.211 94.7851 56.2257 94.7589 56.2472C93.2109 57.5223 91.6631 58.7976 90.1171 60.075C90.073 60.1115 90.0476 60.1707 90.0135 60.2194Z" fill="#84583C"/>
<mask id="mask1_77_25" style="mask-type:alpha" maskUnits="userSpaceOnUse" x="8" y="69" width="62" height="37">
<rect x="12.3659" y="69.35" width="57.2979" height="29.2412" transform="rotate(6.89109 12.3659 69.35)" fill="#D9D9D9"/>
</mask>
<g mask="url(#mask1_77_25)">
<path d="M65.3275 76.8435C65.3093 76.7943 65.2912 76.745 65.2725 76.6942C65.2141 76.7391 65.2141 76.7391 65.1545 76.7849C64.7472 77.0982 64.3396 77.4112 63.9319 77.724C63.78 77.8406 63.6282 77.9573 63.4764 78.074C63.2575 78.2423 63.0384 78.4104 62.8193 78.5785C62.7522 78.6302 62.685 78.6819 62.6158 78.7352C62.2682 79.0014 61.9171 79.2563 61.549 79.495C61.3773 79.608 61.2163 79.7317 61.0554 79.8588C60.7869 80.0668 60.5138 80.2603 60.2287 80.4458C60.0276 80.5786 59.831 80.7169 59.6339 80.8553C59.2739 81.1059 58.9054 81.3381 58.5303 81.5666C58.3046 81.7083 58.0869 81.8579 57.8691 82.0109C57.5437 82.2388 57.2135 82.4508 56.8711 82.6533C56.7012 82.7545 56.5327 82.857 56.3648 82.9611C55.7695 83.3301 55.1699 83.6896 54.5606 84.0363C54.2747 84.199 53.99 84.3631 53.7074 84.5312C52.9108 85.0047 52.1003 85.4427 51.2739 85.8649C51.0804 85.9644 50.8878 86.0653 50.6954 86.1667C45.2097 89.057 39.2544 91.3431 33.1701 92.7196C33.0774 92.7406 32.9846 92.7617 32.8891 92.7834C31.1443 93.1778 29.3985 93.4923 27.6202 93.7121C27.439 93.7352 27.2583 93.7602 27.0775 93.7864C25.5752 94.0022 24.0634 94.1002 22.5453 94.1332C22.4928 94.1344 22.4404 94.1355 22.3863 94.1367C21.4635 94.156 20.5651 94.1324 19.6476 94.0224C19.5604 94.0121 19.4731 94.0018 19.3832 93.9912C19.1996 93.9693 19.0159 93.9473 18.8323 93.9251C18.5548 93.8917 18.2771 93.8595 17.9994 93.8273C17.0964 93.7202 16.2187 93.6039 15.3453 93.3478C15.2845 93.3311 15.2236 93.3144 15.1609 93.2972C12.7515 92.629 10.4494 91.6169 9.1522 89.4019C6.96672 85.6701 8.86873 83.7834 8.86873 83.7834C8.86873 83.7834 8.91212 83.7332 8.12436 83.1398C7.3366 82.5463 8.03201 81.7677 7.37998 82.4961C6.72795 83.2245 6.16741 85.0062 7.53424 88.8733C7.731 89.4299 8.00395 89.9301 8.3209 90.4298C8.36192 90.4948 8.40294 90.5597 8.44521 90.6266C9.51723 92.2214 11.2583 93.3252 12.9862 94.1328C13.0383 94.1576 13.0905 94.1824 13.1442 94.208C15.1043 95.1336 17.2219 95.5883 19.3661 95.8492C19.436 95.8577 19.5059 95.8663 19.5779 95.8751C20.6447 96.0037 21.6893 96.0805 22.7646 96.0579C22.9825 96.054 23.2001 96.054 23.4181 96.0552C24.3518 96.059 25.2768 96.0215 26.2067 95.9446C26.2778 95.9388 26.2778 95.9388 26.3504 95.9328C27.7945 95.8137 29.2294 95.6776 30.6535 95.4119C30.7026 95.4027 30.7517 95.3936 30.8023 95.3841C33.7464 94.8334 36.634 94.1321 39.4627 93.162C39.7179 93.0746 39.9736 92.9884 40.2292 92.9022C41.3703 92.5147 42.4923 92.0944 43.6009 91.6258C43.688 91.5893 43.775 91.5528 43.8646 91.5151C45.353 90.889 46.8047 90.2034 48.2432 89.4758C48.3554 89.4193 48.3554 89.4193 48.4698 89.3616C49.4836 88.849 50.4695 88.294 51.4497 87.723C51.503 87.6921 51.5562 87.6613 51.6111 87.6296C52.1719 87.305 52.7204 86.9664 53.261 86.6107C53.5391 86.4277 53.8198 86.2504 54.1046 86.0774C54.4967 85.837 54.8714 85.5777 55.2456 85.3118C55.4274 85.1832 55.6119 85.0591 55.7977 84.9362C56.8111 84.2646 57.7743 83.5259 58.7383 82.7893C58.7912 82.7489 58.8442 82.7085 58.8988 82.6669C59.9227 81.8855 59.9227 81.8855 60.3519 81.4978C60.5437 81.3252 60.7449 81.1638 60.9448 81.0003C61.3052 80.7033 61.6495 80.3954 61.9865 80.073C62.1753 79.8963 62.3683 79.7259 62.5636 79.5561C63.113 79.0775 63.6242 78.5729 64.1279 78.0489C64.3191 77.8516 64.514 77.6579 64.7092 77.4644C64.9167 77.2587 65.1237 77.0528 65.3275 76.8435Z" fill="#84583C"/>
</g>
</svg>
