<svg width="157" height="157" viewBox="0 0 157 157" fill="none" xmlns="http://www.w3.org/2000/svg">
<mask id="mask0_77_25" style="mask-type:alpha" maskUnits="userSpaceOnUse" x="19" y="95" width="16" height="17">
<rect x="20.7898" y="95.7199" width="13.7143" height="14.6286" transform="rotate(6.89109 20.7898 95.7199)" fill="#D9D9D9"/>
</mask>
<g mask="url(#mask0_77_25)">
<path d="M81.9967 92.2042C81.9794 92.1564 81.9621 92.1087 81.9442 92.0595C81.8883 92.1031 81.8883 92.1031 81.8312 92.1476C81.4407 92.4518 81.0499 92.7557 80.6591 93.0594C80.5134 93.1726 80.3679 93.2859 80.2225 93.3992C80.0126 93.5627 79.8026 93.7259 79.5925 93.889C79.5281 93.9393 79.4637 93.9895 79.3974 94.0412C79.0642 94.2997 78.7276 94.5472 78.3748 94.7791C78.2102 94.8888 78.0558 95.0089 77.9016 95.1323C77.6442 95.3343 77.3824 95.5222 77.1091 95.7024C76.9164 95.8314 76.7279 95.9656 76.539 96.1C76.1939 96.3434 75.8407 96.569 75.4812 96.7909C75.2649 96.9286 75.0562 97.0739 74.8475 97.2224C74.5355 97.4437 74.219 97.6496 73.8908 97.8464C73.7281 97.9447 73.5666 98.0443 73.4056 98.1454C72.8351 98.5039 72.2604 98.8531 71.6764 99.1899C71.4024 99.348 71.1295 99.5074 70.8587 99.6707C70.0952 100.131 69.3186 100.556 68.5266 100.967C68.3412 101.063 68.1566 101.161 67.9722 101.26C62.7151 104.069 57.0093 106.293 51.1811 107.635C51.0923 107.656 51.0035 107.676 50.912 107.697C49.2406 108.082 47.5685 108.389 45.8654 108.605C45.6918 108.628 45.5187 108.652 45.3455 108.678C43.9067 108.889 42.4589 108.986 41.0051 109.02C40.9549 109.021 40.9046 109.023 40.8529 109.024C39.9692 109.044 39.1089 109.022 38.2306 108.917C38.147 108.907 38.0635 108.897 37.9774 108.887C37.8016 108.866 37.6258 108.845 37.45 108.824C37.1843 108.792 36.9184 108.761 36.6526 108.73C35.788 108.628 34.9477 108.516 34.1117 108.269C34.0535 108.253 33.9953 108.237 33.9353 108.22C31.629 107.576 29.426 106.599 28.1869 104.454C26.0995 100.841 27.9235 99.0095 27.9235 99.0095C27.9235 99.0095 27.9651 98.9608 27.2116 98.3868C26.4581 97.8128 27.1251 97.0573 26.4997 97.7641C25.8743 98.4708 25.335 100.198 26.6384 103.944C26.826 104.483 27.0867 104.967 27.3895 105.451C27.4286 105.514 27.4678 105.577 27.5082 105.642C28.5325 107.186 30.1982 108.253 31.8516 109.033C31.9015 109.057 31.9514 109.081 32.0028 109.106C33.8784 110 35.9056 110.438 37.9584 110.688C38.0253 110.696 38.0922 110.704 38.1611 110.712C39.1826 110.836 40.1827 110.909 41.2124 110.885C41.4211 110.881 41.6294 110.881 41.8381 110.882C42.7322 110.884 43.6181 110.846 44.5086 110.771C44.5767 110.765 44.5767 110.765 44.6463 110.759C46.0293 110.641 47.4035 110.507 48.7675 110.248C48.8146 110.239 48.8616 110.23 48.9101 110.221C51.73 109.683 54.4961 108.999 57.2062 108.055C57.4507 107.97 57.6956 107.886 57.9405 107.802C59.0338 107.425 60.1088 107.016 61.171 106.561C61.2544 106.525 61.3378 106.489 61.4237 106.453C62.8498 105.844 64.2408 105.177 65.6194 104.47C65.7269 104.415 65.7269 104.415 65.8365 104.359C66.8081 103.861 67.7529 103.322 68.6923 102.767C68.7433 102.737 68.7944 102.707 68.847 102.676C69.3845 102.361 69.9101 102.032 70.4283 101.687C70.6949 101.509 70.9639 101.337 71.2369 101.169C71.6127 100.935 71.9719 100.683 72.3306 100.425C72.5048 100.3 72.6817 100.18 72.8598 100.06C73.8311 99.408 74.7545 98.6907 75.6786 97.9755C75.7294 97.9363 75.7802 97.8971 75.8325 97.8567C76.8141 97.098 76.8141 97.098 77.2257 96.7216C77.4095 96.5541 77.6025 96.3974 77.7941 96.2387C78.1396 95.9503 78.4697 95.6515 78.7929 95.3386C78.9739 95.1671 79.159 95.0017 79.3462 94.8368C79.873 94.3723 80.3633 93.8825 80.8463 93.374C81.0297 93.1825 81.2166 92.9945 81.4038 92.8067C81.6027 92.6071 81.8013 92.4072 81.9967 92.2042Z" fill="#84583C"/>
</g>
<path d="M130.546 96.3597C127.921 103.899 123.702 110.784 118.175 116.545C112.649 122.306 105.945 126.807 98.5212 129.743C91.0973 132.678 83.1277 133.978 75.1558 133.554C67.1839 133.131 59.3971 130.993 52.3262 127.287C45.2553 123.581 39.0666 118.395 34.1819 112.08C29.2973 105.766 25.8315 98.4726 24.0209 90.6975C22.2103 82.9224 22.0975 74.8482 23.6901 67.0256C25.2827 59.2029 28.5432 51.8156 33.2495 45.3672L42.9521 52.4485C39.2639 57.502 36.7086 63.2913 35.4605 69.4219C34.2124 75.5524 34.3009 81.8799 35.7198 87.9731C37.1387 94.0664 39.8548 99.782 43.6828 104.73C47.5109 109.679 52.3609 113.744 57.9022 116.648C63.4436 119.552 69.546 121.227 75.7934 121.559C82.0409 121.892 88.2865 120.873 94.1045 118.572C99.9224 116.272 105.176 112.744 109.507 108.229C113.838 103.715 117.145 98.319 119.202 92.4105L130.546 96.3597Z" fill="#DBC595"/>
<path d="M72.8031 15.0001C72.9277 15.0002 73.0523 15.0002 73.1807 15.0002C75.3438 15.005 77.4177 15.1622 79.5457 15.5746C79.6815 15.6006 79.8174 15.6265 79.9573 15.6533C80.8283 15.8238 81.6917 16.0185 82.5533 16.2311C82.6516 16.2549 82.7499 16.2786 82.8511 16.3031C87.114 17.3519 91.1558 19.2487 95.151 21.0344C97.1737 21.9371 99.2204 22.784 101.306 23.5296C105.638 25.0796 109.309 27.5529 112.781 30.5325C113.326 30.9987 113.885 31.4426 114.457 31.8754C114.754 32.1485 114.909 32.4279 115.114 32.775C115.315 32.9914 115.523 33.2018 115.735 33.4069C116.299 33.9638 116.829 34.5292 117.337 35.1384C117.424 35.2403 117.424 35.2403 117.512 35.3442C121.188 39.6776 121.188 39.6776 121.284 41.1619C121.272 41.3 121.272 41.3 121.26 41.4409C121.039 41.5476 121.039 41.5476 120.737 41.5722C120.506 41.3597 120.295 41.1457 120.083 40.9157C120.015 40.8438 119.947 40.772 119.878 40.6979C119.651 40.457 119.425 40.2146 119.2 39.9719C119.12 39.8851 119.039 39.7983 118.956 39.7088C118.502 39.2197 118.055 38.7255 117.615 38.224C117.202 37.7604 116.773 37.3443 116.298 36.9443C116.113 36.786 115.933 36.6226 115.756 36.455C113.042 33.8888 109.612 31.8767 106.091 30.6742C105.985 30.6358 105.878 30.5974 105.769 30.5578C100.602 28.7317 95.3286 29.0313 90.3855 31.3984C88.6968 32.2403 87.145 33.2803 85.6917 34.4819C85.6225 34.5381 85.5532 34.5943 85.4819 34.6522C83.749 36.0633 82.1387 37.6545 80.6822 39.3505C80.3088 39.7763 79.9127 40.1784 79.513 40.5792C79.4276 40.6649 79.3422 40.7506 79.2542 40.8388C78.6654 41.4226 78.0579 41.9657 77.407 42.4795C77.0425 42.7687 76.6934 43.0725 76.342 43.3776C74.6726 44.7737 72.834 45.9391 70.9152 46.9555C70.8357 46.9986 70.7563 47.0416 70.6744 47.0859C69.029 47.9737 67.2971 48.6515 65.5538 49.3189C65.461 49.355 65.3682 49.3911 65.2726 49.4283C62.4314 50.5192 59.3488 50.897 56.3528 51.3151C55.6027 51.4202 54.8563 51.5409 54.1101 51.6707C53.5649 51.7649 53.0191 51.8507 52.4717 51.9311C48.3281 52.5416 44.2007 53.4923 40.3161 55.0962C40.1626 55.159 40.1626 55.159 40.0059 55.223C37.5927 56.2234 35.2854 57.5118 33.2548 59.1665C33.1411 59.2542 33.0275 59.3419 32.9105 59.4322C30.5442 61.2956 28.7556 63.5376 27.2396 66.1255C27.1927 66.205 27.1458 66.2845 27.0975 66.3664C25.835 68.5366 25.0607 70.9094 24.4935 73.347C24.4547 73.5089 24.4159 73.6707 24.376 73.8374C23.8579 76.1139 23.787 78.3413 23.7906 80.6671C23.7906 80.8216 23.7906 80.9762 23.7906 81.1354C23.7939 83.4496 23.9086 85.6488 24.3627 87.9215C24.4385 88.3296 24.5127 88.738 24.5866 89.1465C24.6314 89.3909 24.6778 89.635 24.7263 89.8786C24.8574 90.5524 24.9198 91.1734 24.8858 91.8605C24.755 91.9918 24.755 91.9918 24.4199 92C24.3147 91.9973 24.2096 91.9946 24.1012 91.9918C23.7619 91.3309 23.4556 90.6754 23.2103 89.973C23.1617 89.8344 23.1617 89.8344 23.1121 89.6929C22.622 88.2513 22.2561 86.7698 21.8782 85.2954C21.8443 85.1671 21.8104 85.0388 21.7754 84.9066C21.5135 83.8955 21.3262 82.8796 21.159 81.8488C21.145 81.764 21.1311 81.6792 21.1168 81.5918C20.6192 78.5521 20.2801 75.5428 20.2845 72.4608C20.2846 72.3476 20.2847 72.2344 20.2848 72.1178C20.2892 70.2403 20.3474 68.3853 20.5705 66.5194C20.599 66.2744 20.599 66.2744 20.6281 66.0244C20.9805 63.0629 21.6051 60.2 22.4012 57.3283C22.4248 57.2427 22.4484 57.1571 22.4727 57.069C24.2112 50.7901 27.1153 44.7617 30.901 39.4714C30.9779 39.3638 31.0549 39.2563 31.1342 39.1455C32.0221 37.9104 32.9254 36.6932 33.9086 35.5323C33.9675 35.4622 34.0264 35.3921 34.0871 35.3199C35.4745 33.6692 36.926 32.0969 38.4445 30.5675C38.5096 30.5018 38.5746 30.4362 38.6417 30.3685C39.3941 29.6098 40.1567 28.8726 40.9699 28.1795C41.1177 28.0502 41.2653 27.9208 41.4128 27.7912C47.2568 22.7001 54.273 18.5677 61.7616 16.4937C61.8575 16.467 61.9535 16.4404 62.0523 16.413C63.3173 16.0664 64.5898 15.7813 65.8807 15.55C66.0478 15.5195 66.0478 15.5195 66.2182 15.4884C68.4019 15.1152 70.5911 14.9955 72.8031 15.0001Z" fill="#879C84"/>
<path d="M74.3151 16.7563C74.8911 16.8228 75.1631 17.0091 75.5819 17.4046C75.6975 17.51 75.8132 17.6155 75.9323 17.7241C76.2766 18.0693 76.2766 18.0693 76.5555 18.435C76.9225 18.894 77.2548 19.3058 77.8488 19.4437C78.4044 19.5038 78.9579 19.4972 79.5161 19.4957C80.6381 19.4995 81.7372 19.6923 82.8444 19.859C82.999 19.8819 83.1536 19.9049 83.3129 19.9285C83.5188 19.9603 83.5188 19.9603 83.7289 19.9927C84.1255 20.0392 84.5083 20.0469 84.9071 20.0388C84.4799 19.4625 84.0507 18.8896 83.5995 18.3319C83.9966 18.5099 84.2689 18.7091 84.572 19.0212C84.6447 19.095 84.7173 19.1688 84.7922 19.2448C85.0379 19.5136 85.0379 19.5136 85.3193 19.9208C85.7484 20.4377 86.2488 20.4763 86.8849 20.5804C88.2482 20.8495 89.5455 21.2521 90.8569 21.7047C90.9569 21.7389 91.0568 21.7732 91.1597 21.8085C92.3355 22.2141 93.4509 22.6622 94.5592 23.2311C96.1151 24.0159 97.8079 24.2186 99.507 24.5056C99.6645 24.5323 99.6645 24.5323 99.8251 24.5595C99.9802 24.5857 99.9802 24.5857 100.138 24.6124C101.333 24.8184 102.464 25.1499 103.607 25.5535C103.876 25.6451 104.146 25.7367 104.415 25.8284C105.836 26.3197 107.209 26.8463 108.536 27.5589C108.967 27.7936 108.967 27.7936 109.432 27.9759C109.907 28.1903 110.267 28.4394 110.676 28.7621C110.748 28.8187 110.82 28.8753 110.894 28.9336C111.529 29.4376 112.143 29.9648 112.753 30.4977C113.32 30.992 113.903 31.4614 114.5 31.9185C114.573 31.9845 114.646 32.0505 114.722 32.1185C114.722 32.2052 114.722 32.2918 114.722 32.3811C114.324 32.1966 113.964 31.9704 113.599 31.7283C112.58 31.0521 111.533 30.4553 110.447 29.8946C110.317 29.8271 110.317 29.8271 110.184 29.7583C108.437 28.8579 106.652 28.1337 104.783 27.523C104.653 27.4799 104.522 27.4369 104.387 27.3925C99.835 25.8561 99.835 25.8561 95.1558 25.9638C95.0316 25.9944 94.9074 26.025 94.7795 26.0565C94.5282 26.1194 94.2771 26.1835 94.0265 26.2488C93.6969 26.3339 93.3664 26.4124 93.035 26.49C92.1019 26.7012 92.1019 26.7012 91.355 27.2558C91.2188 27.5608 91.1371 27.8563 91.0531 28.1795C90.947 28.42 90.8352 28.6581 90.718 28.8934C90.6409 29.0557 90.6409 29.0557 90.5622 29.2212C90.3993 29.4925 90.3993 29.4925 90.007 29.7551C90.0417 29.6908 90.0764 29.6265 90.1122 29.5602C90.3301 29.0998 90.5014 28.6246 90.6771 28.1466C90.7134 28.0488 90.7496 27.951 90.787 27.8502C90.8759 27.6099 90.9645 27.3695 91.0531 27.1291C89.2198 27.8816 87.4102 28.67 85.6263 29.5335C85.5472 29.5716 85.4681 29.6096 85.3866 29.6488C84.8742 29.8958 84.3669 30.1516 83.861 30.4116C83.7303 30.4746 83.5997 30.5377 83.4651 30.6026C82.8382 30.9099 82.8382 30.9099 82.4443 31.4554C82.4041 31.748 82.4044 32.0127 82.4226 32.3073C82.4263 32.4985 82.429 32.6899 82.4307 32.8812C82.4323 32.9729 82.4338 33.0646 82.4353 33.1591C82.4154 33.5842 82.2961 33.9486 82.161 34.3506C82.0545 33.9762 82.0147 33.646 82.0175 33.2571C82.0179 33.1522 82.0183 33.0473 82.0188 32.9391C82.0199 32.8308 82.021 32.7225 82.0221 32.6109C82.0227 32.5005 82.0233 32.3902 82.0239 32.2765C82.0254 32.005 82.0278 31.7335 82.0303 31.462C81.5207 31.7539 81.0113 32.0459 80.5019 32.3379C80.3287 32.4372 80.1556 32.5364 79.9825 32.6355C79.7328 32.7786 79.4832 32.9217 79.2336 33.0648C79.1569 33.1087 79.0802 33.1526 79.0012 33.1979C78.7901 33.319 78.5794 33.4409 78.3688 33.5628C78.248 33.6322 78.1272 33.7015 78.0027 33.7729C77.6908 33.9722 77.524 34.1735 77.3227 34.4819C77.3227 34.3953 77.3227 34.3086 77.3227 34.2193C76.8186 34.4927 76.3147 34.7663 75.8107 35.04C75.6687 35.117 75.5267 35.194 75.3804 35.2733C74.9813 35.4901 74.5827 35.708 74.1843 35.9262C74.0849 35.9801 73.9855 36.0341 73.883 36.0896C73.4322 36.3198 73.4322 36.3198 73.1382 36.714C73.1243 36.9466 73.1179 37.1796 73.1152 37.4126C73.0359 41.5235 73.0359 41.5235 71.9613 43.0165C71.9613 42.5006 72.1529 42.1404 72.3572 41.6727C72.6036 40.9693 72.6327 40.2368 72.6565 39.4965C72.662 39.3336 72.6675 39.1707 72.6731 39.0028C72.6808 38.7514 72.6808 38.7514 72.6887 38.4948C72.6944 38.3236 72.7 38.1524 72.7058 37.976C72.7196 37.5554 72.733 37.1347 72.7459 36.714C72.6253 36.7756 72.5047 36.8372 72.3805 36.9006C71.9283 37.1312 71.4756 37.3608 71.0228 37.59C70.8277 37.6889 70.6328 37.7881 70.438 37.8876C68.446 38.9048 68.446 38.9048 67.3845 39.2088C67.3787 39.3105 67.3728 39.4123 67.3668 39.5171C67.078 44.3747 67.078 44.3747 66.4692 44.986C66.485 44.8978 66.5009 44.8096 66.5172 44.7188C66.7061 43.5883 66.8105 42.4582 66.901 41.316C66.9111 41.1908 66.9211 41.0657 66.9315 40.9367C66.9401 40.8252 66.9487 40.7136 66.9575 40.5987C66.9963 40.2195 67.0572 39.8468 67.123 39.4714C66.6213 39.6557 66.124 39.8489 65.6289 40.0508C65.4604 40.118 65.2909 40.1828 65.1205 40.245C64.5573 40.4518 64.0607 40.6677 63.5923 41.047C63.3563 41.6193 63.3275 42.1395 63.3308 42.7539C63.29 43.8412 63.1336 44.82 62.8323 45.8641C62.7835 46.0386 62.7835 46.0386 62.7338 46.2167C62.7007 46.3256 62.6676 46.4345 62.6336 46.5468C62.5896 46.6934 62.5896 46.6934 62.5448 46.843C62.3805 47.1528 62.212 47.2236 61.8924 47.3494C61.95 47.2213 62.0077 47.0932 62.0671 46.9612C62.8433 45.1344 63.0337 43.2749 63.0693 41.3096C62.4089 41.5779 61.7486 41.8464 61.0883 42.115C60.8644 42.2061 60.6404 42.2971 60.4165 42.3881C59.8818 42.6054 59.3473 42.8231 58.8132 43.0418C58.4534 43.189 58.093 43.334 57.7312 43.4761C57.5899 43.5326 57.4485 43.5891 57.3028 43.6474C57.1825 43.6946 57.0621 43.7418 56.9381 43.7904C56.6223 43.9247 56.6223 43.9247 56.4411 44.3213C56.4059 44.5648 56.4059 44.5648 56.4002 44.8547C56.39 44.9999 56.3797 45.1452 56.3691 45.2948C56.3468 45.6117 56.3284 45.9288 56.3144 46.2462C56.2695 46.693 56.1654 47.0619 56.0079 47.4807C55.9648 47.4807 55.9216 47.4807 55.8772 47.4807C55.9364 46.3218 56.0269 45.2042 56.2695 44.0669C56.05 44.1555 56.05 44.1555 55.8261 44.2459C54.78 44.6674 53.7333 45.087 52.6836 45.4994C52.6015 45.5317 52.5194 45.564 52.4348 45.5972C52.0261 45.7579 51.6173 45.9182 51.2083 46.0781C51.058 46.1371 50.9077 46.1962 50.7528 46.257C50.6188 46.3094 50.4848 46.3619 50.3467 46.4159C49.7256 46.671 49.7256 46.671 49.2081 47.0868C49.2081 47.0002 49.2081 46.9135 49.2081 46.8242C49.0926 46.8748 49.0926 46.8748 48.9747 46.9265C48.6196 47.0816 48.2641 47.2361 47.9087 47.3905C47.727 47.4701 47.727 47.4701 47.5417 47.5513C47.3615 47.6293 47.3615 47.6293 47.1777 47.709C47.0582 47.7608 46.9387 47.8126 46.8156 47.866C46.4795 47.9991 46.1477 48.094 45.799 48.1875C45.5163 48.2696 45.5163 48.2696 45.2852 48.3998C45.0704 48.7984 45.0704 48.7984 45.0318 49.2615C44.9073 50.0923 44.9073 50.0923 44.6314 50.3694C44.7033 49.7676 44.8253 49.2339 45.0237 48.6624C40.1502 50.7434 35.1645 53.2113 31.424 57.0657C30.7702 57.7222 30.7702 57.7222 30.5281 57.9469C28.965 59.4364 27.7765 61.235 26.7165 63.1056C26.5863 63.3248 26.4558 63.5437 26.3242 63.7621C26.281 63.6754 26.2379 63.5887 26.1934 63.4995C26.3643 63.1322 26.5433 62.7851 26.741 62.4326C26.7998 62.3272 26.8586 62.2217 26.9192 62.1131C27.4979 61.101 28.1676 60.1764 28.8896 59.2637C29.0507 59.06 29.2091 58.8541 29.367 58.648C30.5699 57.1131 31.9813 55.7657 33.5163 54.571C33.6725 54.4438 33.8287 54.3164 33.9847 54.1889C35.4398 53.0177 37.0033 52.0618 38.6152 51.1243C38.8762 50.9718 39.1362 50.8175 39.3951 50.6613C40.3509 50.0876 41.3298 49.6012 42.343 49.1384C42.5029 49.0646 42.6629 48.9907 42.8228 48.9167C43.5629 48.575 44.3051 48.238 45.0492 47.9049C45.1701 47.8507 45.2911 47.7965 45.4157 47.7407C45.6393 47.6409 45.8632 47.5418 46.0874 47.4434C46.6449 47.2007 46.6449 47.2007 47.1159 46.8242C47.333 46.7766 47.5511 46.7333 47.7697 46.6929C48.2645 46.5195 48.7475 46.3172 49.2327 46.1185C49.3647 46.066 49.4968 46.0135 49.6329 45.9595C49.7589 45.908 49.8849 45.8566 50.0147 45.8036C50.1297 45.757 50.2447 45.7103 50.3632 45.6623C50.6863 45.5189 50.6863 45.5189 50.9081 45.1173C50.9081 45.204 50.9081 45.2906 50.9081 45.3799C51.9869 44.9466 53.0657 44.5133 54.1772 44.0669C54.1772 43.8503 54.1772 43.6336 54.1772 43.4104C54.2635 43.5837 54.3498 43.757 54.4388 43.9356C55.647 43.459 56.8553 42.9824 58.1002 42.4913C57.9707 42.318 57.8413 42.1447 57.7079 41.9661C57.7511 41.8794 57.7942 41.7928 57.8387 41.7035C58.0113 41.8768 58.1839 42.0501 58.3617 42.2287C59.4748 41.8831 60.5361 41.4233 61.6063 40.9649C61.8821 40.8469 62.1579 40.729 62.4339 40.6116C62.6045 40.5391 62.775 40.4662 62.9452 40.3929C63.3309 40.2288 63.7044 40.0813 64.1154 39.9966C64.0723 39.8666 64.0291 39.7366 63.9846 39.6027C64.0946 39.6114 64.2045 39.6201 64.3177 39.6291C64.8547 39.5977 65.2455 39.4198 65.7163 39.18C65.806 39.1359 65.8957 39.0918 65.9881 39.0463C66.2745 38.9049 66.5598 38.7615 66.8451 38.6179C67.0317 38.5254 67.2183 38.4331 67.405 38.3409C67.8715 38.1101 68.3371 37.8772 68.8022 37.6435C69.0898 37.4992 69.3777 37.3553 69.6657 37.2116C69.8523 37.1182 70.039 37.0249 70.2256 36.9315C70.3107 36.889 70.3958 36.8466 70.4835 36.8028C71.1174 36.485 71.7402 36.1508 72.3536 35.7949C72.2673 35.6649 72.181 35.535 72.0921 35.401C72.2109 35.4401 72.3298 35.4792 72.4522 35.5195C73.2503 35.634 73.9152 35.0841 74.5685 34.6871C74.7078 34.6051 74.8471 34.5231 74.9906 34.4386C75.3335 34.2364 75.6748 34.032 76.0151 33.8254C76.0151 33.7388 76.0151 33.6521 76.0151 33.5628C76.0992 33.554 76.1833 33.5452 76.2699 33.5361C76.8404 33.3865 77.3115 33.1003 77.8213 32.8078C77.9218 32.7513 78.0224 32.6948 78.126 32.6365C78.7154 32.3029 79.2905 31.9536 79.8566 31.5814C80.0688 31.462 80.0688 31.462 80.3303 31.462C80.3303 31.3753 80.3303 31.2887 80.3303 31.1994C80.4593 31.1369 80.4593 31.1369 80.5908 31.0732C81.4071 30.6712 82.203 30.2446 82.9947 29.7961C86.2191 27.9808 89.5134 26.601 93.0146 25.4222C92.311 24.7157 89.3059 25.1133 88.3539 25.1064C88.0592 25.1035 87.7645 25.099 87.4699 25.0929C87.0406 25.0841 86.6115 25.0805 86.1821 25.078C86.0506 25.0743 85.9192 25.0707 85.7837 25.0669C85.1193 25.0539 85.1193 25.0539 84.5442 25.3405C84.3376 25.5764 84.3376 25.5764 84.1225 25.9474C84.0794 25.8607 84.0362 25.774 83.9918 25.6848C84.0781 25.5548 84.1644 25.4248 84.2533 25.2908C83.0283 25.2669 81.8134 25.3416 80.5918 25.4222C80.5487 25.5521 80.5055 25.6821 80.4611 25.8161C80.4179 25.7294 80.3748 25.6427 80.3303 25.5535C80.2414 25.5647 80.1525 25.5759 80.0609 25.5875C79.6522 25.6392 79.2434 25.6907 78.8347 25.7422C78.6949 25.7599 78.555 25.7776 78.411 25.7958C78.2732 25.8131 78.1354 25.8305 77.9934 25.8484C77.8577 25.8659 77.722 25.8835 77.5823 25.9016C77.3341 25.9307 77.0852 25.9544 76.8359 25.971C76.485 25.9899 76.485 25.9899 76.0151 26.0787C75.848 26.3372 75.848 26.3372 75.7535 26.6039C75.7535 26.4739 75.7535 26.3439 75.7535 26.21C75.6321 26.2338 75.5107 26.2577 75.3856 26.2823C74.9357 26.3706 74.4859 26.4586 74.036 26.5465C73.8411 26.5847 73.6463 26.6229 73.4515 26.6612C73.1717 26.7162 72.8919 26.7708 72.6121 26.8254C72.4436 26.8584 72.2752 26.8914 72.1016 26.9254C71.6998 26.9978 71.6998 26.9978 71.4383 26.9978C71.352 27.1711 71.2657 27.3444 71.1767 27.523C71.1767 27.393 71.1767 27.263 71.1767 27.1291C70.6177 27.2718 70.0594 27.4176 69.5013 27.564C69.3424 27.6045 69.1836 27.6451 69.0199 27.6868C68.8677 27.727 68.7156 27.7672 68.5589 27.8087C68.4185 27.8451 68.2781 27.8815 68.1335 27.9191C67.7748 28.0489 67.6118 28.14 67.3845 28.4421C67.2489 28.8506 67.2276 29.1635 67.2124 29.5925C67.2069 29.7393 67.2014 29.8862 67.1958 30.0374C67.1907 30.1907 67.1855 30.344 67.1802 30.5019C67.1746 30.6566 67.1689 30.8114 67.1631 30.9709C67.1492 31.3534 67.1359 31.736 67.123 32.1185C67.0799 32.1185 67.0367 32.1185 66.9922 32.1185C66.6093 29.379 66.6093 29.379 67.123 28.3108C66.6925 28.4337 66.2621 28.5569 65.8317 28.6801C65.7117 28.7143 65.5917 28.7486 65.468 28.7839C65.2885 28.8353 65.2885 28.8353 65.1053 28.8878C64.9971 28.9187 64.8889 28.9497 64.7775 28.9815C64.207 29.1482 63.6382 29.3205 63.0693 29.4925C63.0685 29.5659 63.0677 29.6393 63.067 29.715C63.0585 30.4927 63.0474 31.2704 63.035 32.0481C63.0307 32.3368 63.027 32.6254 63.024 32.914C63.0045 34.7414 62.8919 36.4938 62.5462 38.2897C61.6636 38.1912 61.6636 38.1912 61.3693 37.8958C61.6282 37.9391 61.8872 37.9824 62.1539 38.0271C62.5766 36.2385 62.7105 34.5478 62.6852 32.7176C62.6815 32.4 62.6783 32.0824 62.6759 31.7648C62.6743 31.5691 62.672 31.3734 62.6689 31.1777C62.6638 30.6445 62.7039 30.1468 62.8077 29.6238C62.3082 29.8113 61.8103 30.0026 61.3137 30.1976C61.1446 30.2633 60.9751 30.328 60.8053 30.3916C60.5608 30.4833 60.3178 30.5792 60.075 30.6752C59.9284 30.7316 59.7819 30.788 59.6309 30.8461C59.2517 31.0414 59.2517 31.0414 59.0963 31.4279C59.0073 31.8996 58.9982 32.3148 59.0186 32.7945C59.0219 32.8808 59.0252 32.9671 59.0285 33.0561C59.0392 33.329 59.0519 33.6018 59.0646 33.8747C59.0722 34.0608 59.0797 34.247 59.0871 34.4332C59.1053 34.8872 59.1253 35.3411 59.1463 35.7949C59.0169 35.8383 58.8874 35.8816 58.754 35.9262C58.7288 35.3586 58.7054 34.791 58.6838 34.2233C58.6762 34.0303 58.668 33.8374 58.6594 33.6445C58.647 33.3665 58.6365 33.0885 58.6263 32.8104C58.6195 32.6433 58.6126 32.4762 58.6056 32.3041C58.6228 31.868 58.6953 31.588 58.8848 31.1994C58.4149 31.4164 57.9451 31.6336 57.4753 31.8509C57.2377 31.9608 57.0001 32.0706 56.7624 32.1803C56.6115 32.2501 56.4607 32.3199 56.3052 32.3919C56.1669 32.4558 56.0286 32.5198 55.8861 32.5857C55.6875 32.6794 55.6875 32.6794 55.4849 32.775C55.3412 32.8398 55.1975 32.9046 55.0495 32.9713C54.6614 33.1393 54.6614 33.1393 54.5695 33.5628C54.5513 33.8502 54.54 34.1381 54.5327 34.426C54.5279 34.5977 54.523 34.7694 54.5179 34.9464C54.5133 35.128 54.5087 35.3097 54.5041 35.4913C54.4539 37.4766 54.4539 37.4766 54.3509 38.1337C54.3297 38.3409 54.3297 38.3409 54.308 38.5523C54.5913 38.8696 54.5913 38.8696 54.9618 39.0775C55.0949 39.2064 55.2267 39.3367 55.3541 39.4714C54.8375 39.3181 54.467 39.1499 54.0465 38.8149C53.7588 40.1716 53.7394 41.3823 53.9157 42.7539C53.4261 42.2623 53.495 41.6682 53.4825 40.9977C53.4752 40.7444 53.4752 40.7444 53.4677 40.4859C53.4874 39.9586 53.6243 39.5048 53.7819 39.0026C54.0854 37.9926 54.1285 37.0415 54.1364 35.9919C54.1419 35.6486 54.1478 35.3053 54.1542 34.962C54.1557 34.8128 54.1572 34.6636 54.1587 34.5099C54.1769 34.0966 54.2315 33.7063 54.308 33.3002C53.8006 33.5706 53.2936 33.8415 52.7868 34.1128C52.6146 34.2049 52.4424 34.2969 52.2701 34.3886C52.0212 34.5212 51.7727 34.6544 51.5241 34.7876C51.3748 34.8674 51.2256 34.9471 51.0717 35.0293C50.9314 35.1087 50.7911 35.188 50.6466 35.2697C50.5006 35.3445 50.3546 35.4194 50.2042 35.4964C49.8144 35.7739 49.8144 35.7739 49.7729 36.2764C49.773 36.4682 49.7774 36.6599 49.7854 36.8515C49.7865 36.9528 49.7876 37.054 49.7887 37.1583C49.7931 37.4809 49.8029 37.8031 49.8129 38.1255C49.8169 38.3445 49.8205 38.5635 49.8237 38.7825C49.8323 39.3187 49.8458 39.8545 49.862 40.3905C49.6031 40.3471 49.3441 40.3038 49.0774 40.2592C49.1733 40.1236 49.1733 40.1236 49.2711 39.9852C49.5069 39.5309 49.5149 39.2441 49.508 38.7343C49.5061 38.4887 49.5061 38.4887 49.5042 38.2381C49.5009 38.0683 49.4976 37.8984 49.4942 37.7234C49.4924 37.551 49.4907 37.3786 49.4888 37.201C49.4842 36.776 49.4778 36.3512 49.4697 35.9262C49.0344 36.1966 48.5994 36.4675 48.1647 36.7389C47.9448 36.876 47.7246 37.0128 47.5044 37.1495C47.3649 37.2367 47.2254 37.3238 47.0817 37.4136C46.9536 37.4934 46.8256 37.5732 46.6936 37.6553C45.9847 38.0719 45.9847 38.0719 45.5855 38.7449C45.5804 38.8641 45.5754 38.9833 45.5702 39.1062C45.5625 39.2388 45.5549 39.3714 45.547 39.508C45.5415 39.6475 45.536 39.7871 45.5304 39.9309C45.3573 42.8127 45.3573 42.8127 44.7621 43.4104C44.7879 43.2841 44.7879 43.2841 44.8142 43.1553C45.0024 42.184 45.1006 41.2209 45.1708 40.2346C45.1877 40.0095 45.1877 40.0095 45.205 39.7799C45.2324 39.4145 45.2591 39.0491 45.2852 38.6836C44.1193 39.4967 42.9621 40.3206 41.8281 41.1783C41.733 41.2491 41.6379 41.3198 41.54 41.3928C41.4518 41.4601 41.3637 41.5274 41.2728 41.5968C41.1952 41.6555 41.1176 41.7143 41.0376 41.7748C40.7313 42.0701 40.5935 42.3435 40.5479 42.7679C40.5493 42.8641 40.5507 42.9604 40.5521 43.0596C40.5529 43.1645 40.5538 43.2695 40.5546 43.3776C40.5568 43.4859 40.559 43.5942 40.5613 43.7058C40.5625 43.8162 40.5636 43.9265 40.5649 44.0402C40.5679 44.3117 40.5726 44.5832 40.5776 44.8547C40.6587 44.8509 40.7398 44.8471 40.8233 44.8432C40.9295 44.8402 41.0357 44.8372 41.1451 44.8342C41.2505 44.8304 41.3558 44.8266 41.4643 44.8227C41.7545 44.8547 41.7545 44.8547 42.0896 45.183C42.1516 45.2913 42.2137 45.3996 42.2776 45.5112C41.7709 45.265 41.7709 45.265 41.6237 45.1173C41.4257 45.0869 41.2265 45.0632 41.0271 45.0435C40.9191 45.0325 40.811 45.0215 40.6997 45.0101C40.6163 45.0022 40.5328 44.9942 40.4469 44.986C40.4389 45.0652 40.431 45.1444 40.4229 45.226C40.4119 45.331 40.4009 45.4359 40.3896 45.544C40.3737 45.6994 40.3737 45.6994 40.3575 45.8579C40.3161 46.1677 40.3161 46.1677 40.2471 46.4134C40.0353 47.3716 40.1338 48.4894 40.3161 49.4502C39.8463 48.9785 39.7937 48.3863 39.792 47.7438C39.8347 47.029 39.9287 46.3711 40.1281 45.6835C40.4173 44.6361 40.3483 43.5681 40.3161 42.4913C39.9049 42.8204 39.4975 43.1538 39.0937 43.4921C38.9474 43.6146 38.8006 43.7366 38.6534 43.858C38.4315 44.0426 38.213 44.2306 37.995 44.4198C37.8896 44.5062 37.8896 44.5062 37.7821 44.5943C37.5593 44.7818 37.5593 44.7818 37.3085 45.1173C37.3231 45.5568 37.4212 45.8583 37.5782 46.2662C37.7459 46.8499 37.7222 47.4027 37.7008 48.0059C37.6576 48.0059 37.6145 48.0059 37.57 48.0059C37.5485 47.8513 37.5485 47.8513 37.5266 47.6936C37.4081 46.9054 37.2718 46.2253 36.9162 45.5112C36.7002 45.721 36.4851 45.9318 36.2705 46.1431C36.1507 46.2604 36.0308 46.3777 35.9074 46.4985C35.4608 46.9852 35.4629 47.3553 35.4604 48.0013C35.4686 48.267 35.4686 48.267 35.5443 48.5087C35.6155 48.8247 35.6171 49.0969 35.6075 49.4205C35.6042 49.5992 35.6042 49.5992 35.6009 49.7816C35.5951 50.0302 35.5883 50.2788 35.5804 50.5273C35.5692 51.25 35.6306 51.699 36.0008 52.3389C35.9577 52.4255 35.9145 52.5122 35.8701 52.6015C35.1304 51.4755 35.2089 50.4373 35.2203 49.1174C35.215 48.5218 35.1578 47.9398 35.0855 47.3494C34.0852 48.4128 33.1107 49.482 32.2086 50.632C32.1383 50.7207 32.0679 50.8095 31.9954 50.901C31.4477 51.5926 30.9076 52.2896 30.3779 52.9954C30.3214 53.0707 30.2648 53.1461 30.2065 53.2237C29.6901 53.9255 29.3513 54.4721 29.4176 55.3624C29.4591 55.6234 29.4591 55.6234 29.5315 55.8825C29.634 56.3203 29.6008 56.7486 29.5933 57.197C29.3562 56.7768 29.2635 56.3918 29.1847 55.9168C29.1628 55.7875 29.1409 55.6582 29.1183 55.525C29.1024 55.4268 29.0866 55.3286 29.0703 55.2275C26.797 57.2549 25.5144 61.3835 24.4935 64.156C24.44 64.2995 24.44 64.2995 24.3854 64.4459C22.897 68.4828 22.5789 72.7704 22.2705 77.0235C22.2273 77.0235 22.1842 77.0235 22.1397 77.0235C21.925 68.499 24.6188 60.7146 29.1937 53.6106C29.3383 53.3868 29.3383 53.3868 29.4626 53.1267C28.8584 53.2567 28.2543 53.3867 27.6318 53.5206C27.7626 53.258 27.7626 53.258 28.0814 53.1185C28.5851 52.9854 29.052 52.9522 29.5709 52.9349C29.6646 52.9115 29.7583 52.8881 29.8549 52.8641C29.947 52.6916 30.0333 52.5159 30.1164 52.3389C30.2424 52.1526 30.3725 51.9692 30.5056 51.788C30.5821 51.6837 30.6586 51.5794 30.7375 51.472C30.8184 51.3627 30.8993 51.2534 30.9827 51.1407C31.0648 51.0293 31.1469 50.9179 31.2315 50.8031C31.8022 50.0318 32.383 49.2714 32.9932 48.5311C32.8918 48.5596 32.7903 48.588 32.6857 48.6173C31.3861 48.9537 30.1301 49.074 28.8087 48.7937C28.7507 48.9077 28.6926 49.0217 28.6328 49.1391C28.4174 49.5617 28.2013 49.984 27.9851 50.4062C27.8915 50.589 27.7982 50.7718 27.705 50.9548C27.5711 51.2178 27.4366 51.4804 27.3019 51.7429C27.2603 51.8248 27.2188 51.9068 27.1759 51.9912C27.003 52.327 26.8538 52.5949 26.5857 52.8641C26.667 52.2816 26.8919 51.8051 27.1578 51.2885C27.2269 51.1526 27.2269 51.1526 27.2974 51.0139C27.3984 50.816 27.4997 50.6183 27.6014 50.4208C27.7666 50.099 27.9294 49.776 28.0921 49.4528C30.0991 45.499 32.608 41.6901 35.6085 38.421C35.7451 38.2626 35.8813 38.104 36.0172 37.945C37.6055 36.1218 39.2597 34.2902 41.1553 32.7853C41.6003 32.4257 42.0189 32.0401 42.4375 31.6502C42.6699 31.462 42.6699 31.462 42.9314 31.462C42.9314 31.3753 42.9314 31.2887 42.9314 31.1994C42.7156 31.1561 42.4999 31.1127 42.2776 31.0681C42.5792 30.9866 42.8584 30.931 43.1705 30.8999C43.6645 30.7875 43.8794 30.6087 44.2554 30.2721C44.9962 29.6336 45.771 29.1019 46.5928 28.5734C46.2908 28.4867 45.9887 28.4001 45.6775 28.3108C45.6775 28.2674 45.6775 28.2241 45.6775 28.1795C45.7649 28.189 45.8523 28.1985 45.9424 28.2083C47.0282 28.2749 47.6467 27.9638 48.5298 27.3588C48.6477 27.2818 48.7656 27.2048 48.8871 27.1255C49.2143 26.911 49.5385 26.6926 49.862 26.4726C50.0204 26.3664 50.1789 26.2604 50.3375 26.1546C50.4905 26.052 50.4905 26.052 50.6466 25.9474C50.474 25.8174 50.3013 25.6874 50.1235 25.5535C50.2853 25.5905 50.4471 25.6276 50.6139 25.6658C51.4858 25.7622 52.1244 25.3473 52.8696 24.938C53.1392 24.795 53.4089 24.6522 53.6787 24.5097C53.807 24.4413 53.9352 24.3728 54.0674 24.3023C55.4484 23.5839 55.4484 23.5839 55.8772 23.5839C55.834 23.4539 55.7909 23.324 55.7464 23.19C55.8752 23.1982 56.004 23.2063 56.1367 23.2147C56.7263 23.2147 57.202 23.0201 57.7406 22.7961C58.709 22.4022 58.709 22.4022 59.1463 22.4022C59.1463 22.3156 59.1463 22.2289 59.1463 22.1396C59.0514 22.1048 58.9565 22.0699 58.8587 22.034C58.4923 21.8769 58.1911 21.6928 57.8632 21.4667C57.7599 21.396 57.6565 21.3252 57.5501 21.2523C57.434 21.1716 57.434 21.1716 57.3156 21.0892C57.4019 21.0459 57.4882 21.0026 57.5771 20.9579C57.9267 21.1727 58.262 21.3986 58.5936 21.6401C59.0865 21.9708 59.4359 22.0648 60.0198 21.9529C60.6676 21.7909 61.3093 21.6153 61.9496 21.4257C62.0935 21.3846 62.2373 21.3436 62.3856 21.3013C62.522 21.2613 62.6585 21.2212 62.7991 21.18C62.9232 21.1437 63.0473 21.1074 63.1752 21.07C63.4841 20.9861 63.4841 20.9861 63.5923 20.6953C63.8363 20.705 63.8363 20.705 64.0853 20.7148C64.8479 20.7145 65.5569 20.5526 66.2976 20.3835C67.3425 20.1528 68.3712 19.9532 69.4354 19.8362C69.5354 19.8164 69.6353 19.7966 69.7383 19.7762C69.7815 19.6895 69.8246 19.6029 69.8691 19.5136C69.9422 19.5246 70.0154 19.5356 70.0908 19.5469C70.7416 19.6299 71.3523 19.6437 72.0063 19.5875C73.0534 19.5057 74.0992 19.4701 75.1487 19.4397C75.3357 19.4341 75.5226 19.4283 75.7096 19.4226C76.1601 19.4088 76.6106 19.3954 77.0612 19.3823C76.7771 19.0632 76.4903 18.7466 76.203 18.4304C76.0836 18.2961 76.0836 18.2961 75.9617 18.159C75.4538 17.6032 74.9881 17.225 74.3151 16.8876C74.3151 16.8443 74.3151 16.8009 74.3151 16.7563Z" fill="#DEE4CD"/>
<path d="M76.1213 20.2686C76.3351 20.2685 76.3351 20.2685 76.5531 20.2683C78.668 20.2704 80.7265 20.3322 82.8149 20.6953C82.9612 20.72 83.1076 20.7446 83.2584 20.77C84.1642 20.9243 85.0663 21.0927 85.9669 21.2752C86.2824 21.3391 86.5983 21.3999 86.9146 21.4601C88.2376 21.7374 89.5064 22.1779 90.7834 22.6156C90.8787 22.6482 90.9741 22.6807 91.0723 22.7142C91.3453 22.8079 91.6179 22.9028 91.8903 22.9982C92.0501 23.054 92.2099 23.1098 92.3745 23.1673C92.753 23.3213 92.753 23.3213 93.0146 23.5839C92.8726 23.585 92.7307 23.5861 92.5844 23.5872C91.249 23.5973 89.9136 23.6088 88.5782 23.6217C87.8915 23.6283 87.2049 23.6344 86.5183 23.6393C85.8561 23.6442 85.1939 23.6503 84.5318 23.6572C84.2787 23.6597 84.0256 23.6616 83.7725 23.6632C83.419 23.6654 83.0655 23.6692 82.712 23.6734C82.5538 23.6738 82.5538 23.6738 82.3925 23.6742C81.8235 23.6613 81.8235 23.6613 81.3764 23.9779C80.8249 24.105 80.2622 24.1624 79.701 24.2322C79.4678 24.2669 79.4678 24.2669 79.2298 24.3023C78.0763 24.446 78.0763 24.446 77.5582 24.0604C77.4805 23.9465 77.4028 23.8326 77.3227 23.7152C77.2364 23.6719 77.1501 23.6286 77.0612 23.5839C77.2769 23.8439 77.4927 24.1039 77.715 24.3718C76.8368 24.6506 75.9395 24.806 75.0343 24.9708C74.8777 24.9998 74.7211 25.0289 74.5598 25.0588C74.2596 25.114 73.9592 25.1682 73.6587 25.2211C73.4298 25.2621 73.2012 25.3054 72.9738 25.3542C72.5958 25.4292 72.4029 25.4489 72.0584 25.2616C71.9778 25.1819 71.8972 25.1022 71.8142 25.0201C71.7276 24.9358 71.6409 24.8515 71.5517 24.7646C71.2352 24.4256 70.9385 24.0816 70.6537 23.7152C70.9204 24.05 71.1865 24.3845 71.4464 24.7246C71.6956 25.0521 71.6956 25.0521 72.0921 25.2909C72.0921 25.3775 72.0921 25.4642 72.0921 25.5535C71.5645 25.7073 71.0364 25.8593 70.5078 26.0095C70.3282 26.0608 70.1487 26.1126 69.9694 26.165C69.7111 26.2404 69.4523 26.3138 69.1933 26.3869C68.9601 26.454 68.9601 26.454 68.7222 26.5224C68.2968 26.6045 68.0544 26.6062 67.6461 26.4726C67.361 26.269 67.0965 26.0647 66.8288 25.8407C65.9521 25.1361 65.1285 24.6209 63.9846 24.5031C64.0639 24.5224 64.1431 24.5416 64.2247 24.5615C65.6137 24.9349 66.6742 25.6999 67.7768 26.6039C67.3563 26.8854 66.9859 27.0155 66.5065 27.1747C66.4212 27.2032 66.3359 27.2316 66.2481 27.261C66.068 27.3209 65.8878 27.3806 65.7076 27.4401C65.4325 27.5308 65.1577 27.6223 64.8829 27.714C63.5239 28.1658 63.5239 28.1658 62.9385 28.3108C62.6783 28.4139 62.4196 28.521 62.1621 28.6308C61.8979 28.7432 61.6337 28.8553 61.3693 28.9673C61.2554 29.0172 61.1414 29.0672 61.024 29.1186C60.2937 29.382 59.6675 29.1701 58.9972 28.855C58.4741 28.5974 57.9593 28.3256 57.4464 28.0482C57.9739 28.3548 58.5001 28.6498 59.0482 28.9181C59.4082 29.0943 59.7272 29.2686 60.0617 29.4925C59.4219 29.7871 58.7821 30.0815 58.1422 30.3756C57.9246 30.4757 57.7071 30.5758 57.4896 30.6759C57.1765 30.8201 56.8632 30.9641 56.5499 31.1081C56.4532 31.1527 56.3564 31.1973 56.2568 31.2433C56 31.3611 55.7425 31.4774 55.4849 31.5933C55.3627 31.6496 55.2404 31.7058 55.1145 31.7638C54.8311 31.8559 54.8311 31.8559 54.4617 31.7138C54.3382 31.6389 54.2146 31.5639 54.0873 31.4866C53.9005 31.3757 53.9005 31.3757 53.7098 31.2625C53.6052 31.1983 53.5005 31.1342 53.3926 31.0681C53.3063 31.0248 53.22 30.9815 53.1311 30.9368C53.6058 31.2401 54.0805 31.5434 54.5695 31.8559C54.0088 32.419 53.3481 32.7453 52.6571 33.1279C52.45 33.2473 52.45 33.2473 52.2387 33.3692C51.4385 33.8118 50.7822 34.1547 49.862 33.9567C49.4042 33.8107 48.9696 33.6244 48.5298 33.4315C46.8692 32.7551 45.7097 32.7192 43.9929 33.3136C43.2974 33.5148 42.5202 33.5977 41.8449 33.2972C41.7719 33.2548 41.6989 33.2125 41.6237 33.1689C45.5383 29.1437 51.1821 26.1213 56.3267 24.0599C56.4209 24.0215 56.5152 23.9831 56.6123 23.9436C57.384 23.6481 57.384 23.6481 57.8387 23.8466C57.9034 23.6516 57.9034 23.6516 57.9694 23.4526C58.3484 23.2912 58.7141 23.1585 59.1055 23.0341C59.2241 22.9954 59.3428 22.9568 59.465 22.9169C60.5732 22.5636 61.6932 22.2537 62.8159 21.9509C62.9027 21.9274 62.9894 21.9038 63.0788 21.8796C63.3276 21.8124 63.5767 21.7465 63.8258 21.6806C64.042 21.6234 64.042 21.6234 64.2625 21.565C64.6385 21.4831 64.6385 21.4831 65.1615 21.4831C65.1615 21.9164 65.1615 22.3497 65.1615 22.7961C65.2047 22.3628 65.2478 21.9296 65.2923 21.4831C66.3316 21.062 67.3214 21.0005 68.4307 20.9579C68.4307 21.1312 68.4307 21.3046 68.4307 21.4831C68.4517 21.3795 68.4728 21.276 68.4945 21.1692C68.6922 20.8266 68.6922 20.8266 69.1637 20.681C69.3629 20.6499 69.5627 20.6219 69.7628 20.5968C69.8575 20.5821 69.9521 20.5674 70.0497 20.5522C72.0595 20.2593 74.0953 20.2697 76.1213 20.2686Z" fill="#879C84"/>
<path d="M39.0003 39.6519C39.4087 39.7525 39.7987 39.8673 40.195 40.0089C40.5621 40.1231 40.834 40.1559 41.2151 40.1443C41.3173 40.1419 41.4194 40.1395 41.5247 40.1371C41.6384 40.1325 41.6384 40.1325 41.7545 40.1279C41.232 40.6677 40.6797 41.1631 40.1118 41.6542C40.0256 41.7294 39.9393 41.8045 39.8505 41.882C39.6854 42.0253 39.5196 42.1678 39.353 42.3094C39.187 42.4507 39.0229 42.5944 38.8598 42.739C38.5355 42.9336 38.304 42.9247 37.9296 42.9098C37.813 42.9063 37.6963 42.9027 37.5761 42.899C37.4437 42.8922 37.4437 42.8922 37.3085 42.8852C37.3867 42.9014 37.4649 42.9177 37.5455 42.9344C37.8316 43.0165 37.8316 43.0165 38.2238 43.2791C36.8286 44.9777 36.8286 44.9777 35.9743 45.1286C35.5016 45.1711 35.0354 45.1574 34.5624 45.1173C35.0802 45.1173 35.5981 45.1173 36.1316 45.1173C36.1316 45.3799 36.1316 45.3799 35.8547 45.6748C35.7303 45.7942 35.6059 45.9135 35.4778 46.0364C35.3464 46.1662 35.2153 46.2963 35.0845 46.4267C34.9841 46.5266 34.9841 46.5266 34.8817 46.6286C34.8141 46.6958 34.7465 46.7631 34.6768 46.8324C34.6082 46.9002 34.5396 46.968 34.4689 47.0378C34.0655 47.437 34.0655 47.437 33.7426 47.9008C33.3488 48.3123 32.8062 48.3725 32.2658 48.4983C32.1538 48.5273 32.0418 48.5562 31.9264 48.586C30.982 48.8158 29.9508 49.0388 29.0703 48.5311C29.1432 48.0694 29.2522 47.7371 29.5019 47.3433C29.5642 47.2443 29.6264 47.1454 29.6906 47.0434C29.7583 46.9386 29.826 46.8338 29.8957 46.7258C29.966 46.6157 30.0363 46.5056 30.1088 46.3922C31.2099 44.6816 32.3902 43.0276 33.6486 41.4301C33.895 41.1149 34.1134 40.8022 34.3116 40.4546C35.3277 38.8318 37.3608 39.3227 39.0003 39.6519Z" fill="#879C84"/>
<path d="M48.2601 33.4233C49.2921 33.8612 49.2921 33.8612 50.385 34.088C50.385 34.1747 50.385 34.2614 50.385 34.3506C50.0726 34.551 49.7603 34.7357 49.437 34.9169C48.7651 35.2983 48.1116 35.691 47.4781 36.1345C47.3646 36.213 47.2511 36.2914 47.1342 36.3723C46.9138 36.526 46.6954 36.6824 46.4791 36.8417C45.7984 37.3116 45.3526 37.4548 44.5313 37.3117C44.1784 37.2242 43.8475 37.1167 43.5117 36.9767C42.8339 36.7287 42.2452 36.6788 41.5338 36.6648C40.704 36.6432 40.1258 36.5135 39.4493 36.014C39.27 35.7949 39.27 35.7949 39.27 35.2697C39.5133 34.9836 39.7514 34.7311 40.0219 34.4737C40.0923 34.4043 40.1628 34.3348 40.2354 34.2632C40.9549 33.561 40.9549 33.561 41.3622 33.3002C41.6483 33.3331 41.6483 33.3331 42.016 33.4315C42.8837 33.6021 43.5294 33.5223 44.3617 33.2428C45.8133 32.7603 46.8504 32.8242 48.2601 33.4233Z" fill="#879C84"/>
<path d="M38.7469 35.6636C39.122 35.8452 39.474 36.0472 39.8257 36.2709C39.9181 36.3295 40.0105 36.388 40.1056 36.4484C40.1751 36.4927 40.2445 36.5371 40.3161 36.5827C40.1307 36.968 39.926 37.2961 39.6623 37.6332C39.8216 37.4407 39.8216 37.4407 39.9841 37.2444C40.4 36.8287 40.6956 36.7505 41.2732 36.7494C41.3727 36.754 41.4722 36.7586 41.5747 36.7633C41.6783 36.7656 41.7818 36.7679 41.8885 36.7702C42.6523 36.8019 43.3219 36.9517 44.0327 37.2428C44.4049 37.3838 44.7612 37.447 45.1544 37.5018C44.6056 38.0881 43.9964 38.5624 43.3564 39.0446C43.1554 39.1971 42.9545 39.3496 42.7536 39.5021C42.6654 39.5688 42.5771 39.6354 42.4861 39.7041C42.2842 39.853 42.2842 39.853 42.1468 39.9966C41.19 40.0652 40.3217 40.0572 39.4242 39.7073C38.2189 39.2648 36.877 39.2695 35.6085 39.2088C35.7838 38.814 35.9745 38.5526 36.2869 38.2568C36.6202 37.9325 36.933 37.6014 37.2349 37.2475C37.7118 36.6914 38.2243 36.1761 38.7469 35.6636Z" fill="#879C84"/>
<path d="M24.1012 63.7621C24.1443 63.8487 24.1875 63.9354 24.2319 64.0247C24.3182 64.068 24.4046 64.1113 24.4935 64.156C24.4341 64.3212 24.4341 64.3212 24.3734 64.4899C22.9596 68.5653 22.5806 72.7481 22.2705 77.0235C22.2273 77.0235 22.1842 77.0235 22.1397 77.0235C22.0264 72.5257 22.6347 68.0254 24.1012 63.7621Z" fill="#DEE4CD"/>
<path d="M54.1772 34.088C54.4388 34.3506 54.4388 34.3506 54.4705 34.653C54.47 34.777 54.4695 34.901 54.4689 35.0287C54.4686 35.1653 54.4684 35.3018 54.4681 35.4426C54.4665 35.5859 54.4649 35.7293 54.4633 35.877C54.4632 36.0173 54.4631 36.1576 54.463 36.3022C54.4597 36.9132 54.4478 37.5054 54.3535 38.1096C54.3385 38.2557 54.3235 38.4018 54.308 38.5523C54.5913 38.8696 54.5913 38.8696 54.9618 39.0775C55.0949 39.2064 55.2267 39.3367 55.3541 39.4714C54.8375 39.3181 54.467 39.1499 54.0465 38.8149C53.7588 40.1716 53.7394 41.3823 53.9157 42.7539C53.4261 42.2623 53.495 41.6682 53.4825 40.9977C53.4777 40.8288 53.4728 40.6599 53.4677 40.4859C53.4874 39.9595 53.6239 39.5069 53.7814 39.0057C54.0896 37.9805 54.1331 37.0081 54.1445 35.9426C54.1482 35.7613 54.1522 35.5799 54.1563 35.3985C54.1654 34.9616 54.1724 34.5249 54.1772 34.088Z" fill="#DEE4CD"/>
<path d="M49.3389 35.7949C49.4684 35.7949 49.5978 35.7949 49.7312 35.7949C49.7533 36.3639 49.775 36.9329 49.7966 37.5018C49.8028 37.6621 49.8091 37.8224 49.8155 37.9876C49.8457 38.7892 49.87 39.5883 49.862 40.3905C49.6031 40.3471 49.3441 40.3038 49.0774 40.2592C49.1421 40.1806 49.2068 40.1021 49.2735 40.0212C49.5666 39.3959 49.5033 38.8399 49.4697 38.1584C49.4649 38.0602 49.4601 37.962 49.4551 37.8609C49.4207 37.1719 49.3812 36.4834 49.3389 35.7949Z" fill="#DEE4CD"/>
<path d="M76.7997 23.3213C77.292 23.5474 77.6039 23.8455 77.9765 24.2404C77.9334 24.3271 77.8902 24.4138 77.8458 24.503C77.5156 24.3373 77.3925 24.1367 77.1756 23.8383C77.1051 23.742 77.0347 23.6457 76.9621 23.5465C76.9085 23.4722 76.8549 23.3979 76.7997 23.3213Z" fill="#DEE4CD"/>
<path d="M109.048 75.2194C109.284 75.6564 109.517 76.0946 109.756 76.5299C109.925 76.837 110.101 77.1404 110.281 77.4585C110.375 77.3808 110.45 77.3108 110.533 77.252C110.905 76.9886 111.277 76.7252 111.653 76.4686C111.815 76.3584 111.976 76.3766 112.138 76.5204C112.55 76.8851 112.887 77.308 113.152 77.7877C113.236 77.9392 113.184 78.0589 113.091 78.1782C112.71 78.6713 112.249 79.0772 111.746 79.4384C111.685 79.4825 111.623 79.5261 111.542 79.584C111.761 79.9687 111.977 80.3492 112.193 80.7294C113.666 83.3177 115.137 85.9071 116.616 88.4921C116.731 88.6929 116.73 88.8099 116.554 88.9555C115.957 89.4497 115.376 89.9627 114.788 90.4674C114.752 90.4982 114.708 90.5199 114.652 90.5563C114.462 90.3489 114.271 90.1471 114.087 89.9392C112.375 88.0056 110.665 86.0712 108.955 84.1365C108.404 83.5137 107.853 82.8915 107.308 82.2635C107.214 82.1555 107.14 82.1401 107.015 82.1834C106.825 82.2492 106.627 82.297 106.427 82.3296C106.266 82.3559 106.192 82.2651 106.26 82.1113C106.34 81.9327 106.446 81.7675 106.522 81.5879C106.547 81.5295 106.545 81.4188 106.506 81.3746C105.83 80.5982 105.146 79.8284 104.431 79.0395C104.363 79.0409 104.323 79.0545 104.292 79.0798C103.31 79.8879 102.328 80.6967 101.348 81.5073C101.308 81.5404 101.283 81.5917 101.251 81.6345C100.639 82.0758 100.045 82.5439 99.4123 82.9528C98.1385 83.7754 96.8432 84.5659 95.5569 85.3697C95.5275 85.3881 95.4993 85.4082 95.4698 85.4264C95.3052 85.5279 95.06 85.5909 94.9978 85.7406C94.9317 85.8998 95.0347 86.1416 95.0714 86.3463C95.3062 87.6576 95.5407 88.9689 95.7816 90.2794C95.8231 90.5049 95.7737 90.6683 95.6187 90.8316C95.2526 91.2173 94.9109 91.6267 94.5324 92.0571C93.8074 90.4615 93.0961 88.8958 92.3798 87.3194C92.0236 87.5067 91.6836 87.691 91.338 87.8649C91.1524 87.9583 90.9579 88.0349 90.7663 88.1166C90.6219 88.1781 90.4717 88.1907 90.3537 88.0528C90.2323 87.9109 90.2794 87.7558 90.3683 87.6367C90.6833 87.2143 91.01 86.8012 91.3326 86.3849C91.3658 86.3421 91.401 86.3011 91.4489 86.2426C90.0603 85.2516 88.6838 84.2693 87.2781 83.2661C87.6906 82.9923 88.0967 82.7629 88.454 82.4735C88.7554 82.2292 89.0265 82.2607 89.3779 82.4016C90.6891 82.9271 92.0114 83.4199 93.3277 83.931C93.4678 83.9854 93.5479 83.9762 93.6494 83.8593C95.0499 82.2463 96.4927 80.6712 98.0749 79.2403C99.2504 78.1772 100.493 77.1894 101.706 76.1682C101.774 76.1115 101.842 76.0561 101.925 75.9882C101.261 75.1231 100.613 74.2784 99.9579 73.4238C99.6639 73.4683 99.4037 73.6822 99.0567 73.5858C99.0387 73.3239 99.1589 73.1258 99.2879 72.9421C99.3922 72.7935 99.3856 72.6914 99.2654 72.5348C97.0855 69.6923 94.9127 66.8445 92.7359 63.9997C92.6577 63.8976 92.6289 63.8264 92.7224 63.7243C93.2519 63.1466 93.8333 62.6448 94.5937 62.3817C94.7422 62.3304 94.8453 62.3349 94.9781 62.4467C97.2896 64.3914 99.6051 66.3312 101.92 68.2716C102.134 68.4505 102.359 68.6158 102.561 68.8078C102.699 68.9397 102.778 68.9135 102.889 68.7985C103.317 68.351 103.793 67.9649 104.357 67.6914C104.566 67.5904 104.726 67.6028 104.914 67.773C105.283 68.1069 105.602 68.4732 105.843 68.9102C105.953 69.1081 105.941 69.271 105.797 69.4149C105.485 69.7276 105.168 70.0359 104.849 70.3427C104.766 70.4227 104.672 70.4907 104.567 70.5771C105.218 71.1257 105.856 71.6633 106.507 72.212C106.587 72.1461 106.655 72.0898 106.724 72.0336C108.324 70.7192 109.914 69.3923 111.528 68.0954C112.41 67.3869 113.365 66.7749 114.457 66.4197C114.962 66.2552 115.504 66.1635 116.04 66.1161C116.725 66.0557 116.981 66.39 116.82 67.0611C116.596 67.9927 116.141 68.8013 115.538 69.5076C115.04 70.0913 114.482 70.6217 113.915 71.1844C113.852 71.211 113.82 71.2257 113.793 71.2472C112.246 72.5223 110.698 73.7976 109.152 75.075C109.108 75.1115 109.082 75.1707 109.048 75.2194Z" fill="#84583C"/>
<mask id="mask1_77_25" style="mask-type:alpha" maskUnits="userSpaceOnUse" x="27" y="84" width="62" height="37">
<rect x="31.4005" y="84.35" width="57.2979" height="29.2412" transform="rotate(6.89109 31.4005 84.35)" fill="#D9D9D9"/>
</mask>
<g mask="url(#mask1_77_25)">
<path d="M84.3621 91.8435C84.3439 91.7943 84.3258 91.745 84.3071 91.6942C84.2487 91.7391 84.2487 91.7391 84.1891 91.7849C83.7818 92.0982 83.3742 92.4112 82.9665 92.724C82.8146 92.8406 82.6628 92.9573 82.511 93.074C82.2922 93.2423 82.0731 93.4104 81.8539 93.5785C81.7868 93.6302 81.7196 93.6819 81.6505 93.7352C81.3028 94.0014 80.9517 94.2563 80.5836 94.495C80.4119 94.608 80.2509 94.7317 80.09 94.8588C79.8216 95.0668 79.5484 95.2603 79.2633 95.4458C79.0622 95.5786 78.8656 95.7169 78.6686 95.8553C78.3085 96.1059 77.94 96.3381 77.5649 96.5666C77.3392 96.7083 77.1215 96.8579 76.9037 97.0109C76.5783 97.2388 76.2481 97.4508 75.9057 97.6533C75.7358 97.7545 75.5674 97.857 75.3994 97.9611C74.8041 98.3301 74.2045 98.6896 73.5952 99.0363C73.3093 99.199 73.0246 99.3631 72.742 99.5312C71.9454 100.005 71.1349 100.443 70.3085 100.865C70.115 100.964 69.9224 101.065 69.73 101.167C64.2443 104.057 58.289 106.343 52.2047 107.72C52.112 107.741 52.0193 107.762 51.9237 107.783C50.1789 108.178 48.4331 108.492 46.6548 108.712C46.4736 108.735 46.2929 108.76 46.1121 108.786C44.6098 109.002 43.0981 109.1 41.5799 109.133C41.5274 109.134 41.475 109.136 41.4209 109.137C40.4981 109.156 39.5997 109.132 38.6823 109.022C38.595 109.012 38.5077 109.002 38.4178 108.991C38.2342 108.969 38.0506 108.947 37.8669 108.925C37.5894 108.892 37.3117 108.859 37.034 108.827C36.131 108.72 35.2533 108.604 34.3799 108.348C34.3191 108.331 34.2582 108.314 34.1956 108.297C31.7861 107.629 29.484 106.617 28.1868 104.402C26.0013 100.67 27.9033 98.7834 27.9033 98.7834C27.9033 98.7834 27.9467 98.7332 27.159 98.1398C26.3712 97.5463 27.0666 96.7677 26.4146 97.4961C25.7626 98.2245 25.202 100.006 26.5689 103.873C26.7656 104.43 27.0386 104.93 27.3555 105.43C27.3965 105.495 27.4376 105.56 27.4798 105.627C28.5518 107.221 30.2929 108.325 32.0208 109.133C32.073 109.158 32.1251 109.182 32.1788 109.208C34.1389 110.134 36.2565 110.588 38.4007 110.849C38.4706 110.858 38.5405 110.866 38.6125 110.875C39.6793 111.004 40.7239 111.08 41.7992 111.058C42.0171 111.054 42.2347 111.054 42.4527 111.055C43.3864 111.059 44.3114 111.021 45.2413 110.945C45.3124 110.939 45.3124 110.939 45.385 110.933C46.8292 110.814 48.264 110.678 49.6881 110.412C49.7372 110.403 49.7863 110.394 49.8369 110.384C52.781 109.833 55.6686 109.132 58.4973 108.162C58.7525 108.075 59.0082 107.988 59.2638 107.902C60.4049 107.515 61.5269 107.094 62.6355 106.626C62.7226 106.589 62.8096 106.553 62.8992 106.515C64.3876 105.889 65.8393 105.203 67.2778 104.476C67.39 104.419 67.39 104.419 67.5044 104.362C68.5183 103.849 69.5041 103.294 70.4843 102.723C70.5376 102.692 70.5908 102.661 70.6457 102.63C71.2065 102.305 71.755 101.966 72.2956 101.611C72.5737 101.428 72.8544 101.25 73.1392 101.077C73.5313 100.837 73.906 100.578 74.2802 100.312C74.462 100.183 74.6465 100.059 74.8323 99.9362C75.8457 99.2646 76.8089 98.5259 77.7729 97.7893C77.8258 97.7489 77.8788 97.7085 77.9334 97.6669C78.9573 96.8855 78.9573 96.8855 79.3865 96.4978C79.5783 96.3252 79.7795 96.1638 79.9794 96.0003C80.3398 95.7033 80.6841 95.3954 81.0211 95.073C81.2099 94.8963 81.4029 94.7259 81.5982 94.5561C82.1476 94.0775 82.6588 93.5729 83.1625 93.0489C83.3537 92.8516 83.5486 92.6579 83.7438 92.4644C83.9513 92.2587 84.1583 92.0528 84.3621 91.8435Z" fill="#84583C"/>
</g>
</svg>
